<svg width="32" height="32" viewBox="-3 -5 32 32" fill="none" xmlns="http://www.w3.org/2000/svg">
<path d="M21.5811 11.5358L6.4375 13.1299L4.63618 4.38929H23.1698C23.796 4.38929 24.2682 4.95834 24.1526 5.57382L23.3374 9.91587C23.1743 10.7846 22.4602 11.4433 21.5811 11.5358Z" fill="#FF8E01"/>
<path d="M1.625 1.75488H3.37625C3.78188 1.75488 4.13238 2.03824 4.21737 2.43486L4.63618 4.38929M6.4375 13.1299L21.5811 11.5358C22.4602 11.4433 23.1743 10.7846 23.3374 9.91587L24.1526 5.57382C24.2682 4.95834 23.796 4.38929 23.1698 4.38929H4.63618M6.4375 13.1299L4.63618 4.38929M6.4375 13.1299L6.50704 13.6166C6.71817 15.0946 7.98394 16.1924 9.47689 16.1924H21.75" stroke="#FF8E01" stroke-width="2" stroke-linecap="round"/>
<circle cx="9.5" cy="20.5674" r="2.1875" fill="#FF8E01"/>
<circle cx="19.125" cy="20.5674" r="2.1875" fill="#FF8E01"/>
</svg>
