<svg width="86" height="85" viewBox="0 0 86 85" fill="none" xmlns="http://www.w3.org/2000/svg">
<circle cx="43" cy="42.5" r="42" fill="" stroke=""/>
<path d="M55.6082 41.686L30.265 44.3537L27.3586 30.2506H58.0021C58.6284 30.2506 59.1005 30.8197 58.985 31.4352L57.3645 40.066C57.2014 40.9348 56.4873 41.5934 55.6082 41.686Z" fill="#CCCCCC"/>
<path d="M22.5 26H25.7523C26.1579 26 26.5084 26.2834 26.5934 26.68L27.3586 30.2506M30.265 44.3537L55.6082 41.686C56.4873 41.5934 57.2014 40.9348 57.3645 40.066L58.985 31.4352C59.1005 30.8197 58.6284 30.2506 58.0021 30.2506H27.3586M30.265 44.3537L27.3586 30.2506M30.265 44.3537L30.603 46.7193C30.8141 48.1973 32.0799 49.2951 33.5728 49.2951H54.9719" stroke="#CCCCCC" stroke-width="4" stroke-linecap="round"/>
<circle cx="35.2024" cy="58.4694" r="3.52955" fill="#CCCCCC" stroke="#CCCCCC" stroke-width="1.5"/>
<circle cx="50.7346" cy="58.4694" r="3.52955" fill="#CCCCCC" stroke="#CCCCCC" stroke-width="1.5"/>
</svg>
