<svg width="32" height="33" viewBox="0 0 32 33" fill="none" xmlns="http://www.w3.org/2000/svg">
<path d="M25.6773 5.5C24.9278 5.5 24.3547 6.075 24.3547 6.82692V9.87885H7.64532V6.82692C7.64532 6.075 7.07217 5.5 6.32266 5.5C5.57315 5.5 5 6.075 5 6.82692V27.1731C5 27.925 5.57315 28.5 6.32266 28.5C7.07217 28.5 7.64532 27.925 7.64532 27.1731V24.1212H24.3547V27.1731C24.3547 27.925 24.9278 28.5 25.6773 28.5C26.4268 28.5 27 27.925 27 27.1731V6.82692C27 6.075 26.4268 5.5 25.6773 5.5ZM7.64482 16.5137H24.3542V17.4868H7.64482V16.5137ZM24.3542 15.6291H7.64482V12.6214H24.3542V15.6291ZM7.64482 18.3714H24.3542V21.3791H7.64482V18.3714ZM24.3542 10.7637V11.7368H7.64482V10.7637H24.3542ZM6.76304 27.1731C6.76304 27.4385 6.58669 27.6154 6.32216 27.6154C6.05762 27.6154 5.88127 27.4385 5.88127 27.1731V6.82692C5.88127 6.56154 6.05762 6.38462 6.32216 6.38462C6.58669 6.38462 6.76304 6.56154 6.76304 6.82692V27.1731ZM7.64482 23.2365V22.2635H24.3542V23.2365H7.64482ZM26.1177 27.1731C26.1177 27.4385 25.9414 27.6154 25.6768 27.6154C25.4123 27.6154 25.2359 27.4385 25.2359 27.1731V6.82692C25.2359 6.56154 25.4123 6.38462 25.6768 6.38462C25.9414 6.38462 26.1177 6.56154 26.1177 6.82692V27.1731Z" fill="#FF8E01"/>
</svg>
