<svg width="32" height="33" viewBox="0 0 32 33" fill="none" xmlns="http://www.w3.org/2000/svg">
<path d="M8.93168 23.4477H9.52868V25.0421C9.52868 25.3722 9.79559 25.6392 10.1257 25.6392H11.151V28.1324C11.151 28.4625 11.4179 28.7294 11.748 28.7294C12.0781 28.7294 12.345 28.4625 12.345 28.1324V25.6392H13.3703C13.7004 25.6392 13.9673 25.3722 13.9673 25.0421V23.4477H18.4764V25.0421C18.4764 25.3722 18.7433 25.6392 19.0734 25.6392H20.0987V28.1324C20.0987 28.4625 20.3656 28.7294 20.6957 28.7294C21.0258 28.7294 21.2928 28.4625 21.2928 28.1324V25.6392H22.318C22.6481 25.6392 22.915 25.3722 22.915 25.0421V23.4477H23.5121C24.5797 23.4477 25.4436 22.5839 25.4436 21.5162V5.43153C25.4436 4.36387 24.5797 3.5 23.5121 3.5L8.93153 3.50029C7.86387 3.50029 7 4.36417 7 5.43182V21.5165C7 22.5839 7.86403 23.4477 8.93168 23.4477ZM12.7733 24.4448H10.7295V23.4474H12.7733V24.4448ZM21.7281 24.4448H19.6843V23.4474H21.7281V24.4448ZM23.5262 22.2467H8.93138C8.52396 22.2467 8.20092 21.9166 8.20092 21.5162L8.20122 18.7335H16.2323H24.2634V21.5162C24.2564 21.9236 23.9266 22.2467 23.5262 22.2467ZM8.93138 4.69385H23.5262C23.9336 4.69385 24.2567 5.02395 24.2567 5.4243V17.5329H16.2289H8.20122V5.43108C8.20122 5.02396 8.53102 4.69385 8.93138 4.69385Z" fill="#FF8E01"/>
<path d="M14.6045 15.6237C14.8361 15.7642 15.1383 15.7289 15.3349 15.5393C15.5316 15.3497 15.5736 15.0475 15.4334 14.8089C15.349 14.6613 15.307 14.507 15.307 14.3453C15.307 13.5376 15.7988 12.4841 16.2341 11.7257C16.6624 12.4773 17.1612 13.5376 17.1612 14.3453C17.1612 14.4999 17.1191 14.6542 17.0348 14.8018C16.8943 15.0405 16.9363 15.3427 17.1332 15.5323C17.2455 15.6445 17.4001 15.7007 17.5548 15.7007C17.66 15.7007 17.7726 15.6725 17.8637 15.6093C18.812 15.0334 19.3737 14.0361 19.3737 12.9405C19.3737 10.103 16.8384 6.52098 16.7258 6.37371C16.5009 6.05772 15.9741 6.05772 15.7495 6.37371C15.6443 6.52833 13.1016 10.103 13.1016 12.9405C13.0943 14.0505 13.656 15.0475 14.6043 15.6236L14.6045 15.6237ZM16.2268 7.82773C16.9361 8.96559 18.1583 11.199 18.1583 12.9548C18.1583 13.018 18.1583 13.0741 18.1513 13.1303C17.7297 11.6905 16.7676 10.3348 16.7115 10.2578C16.4866 9.9418 15.9599 9.9418 15.7353 10.2578C15.6862 10.328 14.7238 11.6905 14.2955 13.1303C14.2885 13.0741 14.2885 13.0109 14.2885 12.9548C14.2952 11.199 15.5174 8.96559 16.2268 7.82773H16.2268Z" fill="#FF8E01"/>
</svg>
