<svg width="32" height="33" viewBox="0 0 32 33" fill="none" xmlns="http://www.w3.org/2000/svg">
<path d="M14.0882 14.9963L10.4126 18.671C8.91819 18.3453 7.39527 18.7878 6.30471 19.8784C4.35615 21.827 4.78735 24.676 6.30471 26.1989C7.17654 27.0698 8.32055 27.5056 9.46629 27.5056C10.6103 27.5056 11.7543 27.0698 12.6269 26.1989C13.7166 25.1092 14.16 23.5872 13.8334 22.0918L17.5708 18.3544L21.3311 14.5657C21.3477 14.549 21.4093 14.5215 21.4533 14.5289C22.9707 14.8645 24.545 14.412 25.668 13.3186C26.6051 12.3816 27.0879 11.073 26.9905 9.70738C26.962 9.47476 26.8176 9.28524 26.6024 9.20074C26.389 9.11514 26.1406 9.15563 25.9319 9.33037L24.3097 10.9526L21.8837 10.6482L21.5481 8.225L23.2006 6.57246C23.3707 6.40234 23.4295 6.15864 23.3533 5.93694C23.2742 5.70709 23.071 5.54514 22.8025 5.51205C21.4608 5.41552 20.1485 5.90293 19.1838 6.83817C18.0711 7.95093 17.6086 9.51696 17.9433 11.006C17.9544 11.0694 17.9433 11.1127 17.9093 11.1467L14.0882 14.9963ZM18.3995 11.6929C18.623 11.5154 18.7242 11.2138 18.6652 10.8653C18.381 9.60273 18.7701 8.29228 19.6998 7.36165C20.4474 6.63699 21.4497 6.23427 22.4706 6.23427H22.4963L21.0278 7.70284C20.9065 7.82338 20.8366 7.99704 20.8401 8.22706L21.162 10.7817C21.162 11.0475 21.3671 11.2829 21.7018 11.3638L24.3217 11.6913C24.5057 11.6913 24.6795 11.6223 24.799 11.5018L26.2675 10.0314C26.2749 11.0733 25.873 12.0692 25.1492 12.793C24.2084 13.7098 22.8824 14.0868 21.5913 13.8046C21.3117 13.7585 21.0027 13.8515 20.8087 14.0437L16.985 17.895L13.1661 21.7168C13.0732 21.8097 13.0374 21.9448 13.0705 22.0719C13.419 23.3767 13.0585 24.7249 12.1049 25.6785C10.6509 27.1334 8.28114 27.1343 6.82526 25.6785C5.55715 24.4067 5.19661 22.0258 6.82526 20.3973C7.77793 19.4447 9.12794 19.0832 10.431 19.4317C10.5588 19.4648 10.693 19.429 10.7869 19.3361L14.6078 15.517L14.6685 15.4564C14.6685 15.4564 14.6694 15.4555 14.6694 15.4545L18.3995 11.6929Z" fill="#FF8E01" stroke="#FF8E01" stroke-width="0.5"/>
<path d="M10.7578 21.4882L9.1273 21.0505C8.99952 21.0146 8.86435 21.0523 8.77136 21.1461L7.57683 22.3397C7.48399 22.4325 7.4472 22.5677 7.48122 22.6947L7.91798 24.3261C7.95201 24.453 8.05131 24.5523 8.17817 24.5863L9.80867 25.024C9.83993 25.0323 9.8721 25.0369 9.90428 25.0369C9.99988 25.0369 10.0946 24.9992 10.1645 24.9293L11.359 23.7357C11.4518 23.6429 11.4886 23.5077 11.4546 23.3807L11.0178 21.7493C10.984 21.6216 10.8837 21.5222 10.7578 21.4882L10.7578 21.4882ZM9.79497 24.259L8.57459 23.9316L8.24728 22.7095L9.14114 21.8166L10.3615 22.144L10.6881 23.3653L9.79497 24.259Z" fill="#FF8E01" stroke="#FF8E01" stroke-width="0.5"/>
<path d="M13.2639 18.7197C13.1204 18.8632 13.1204 19.0959 13.2639 19.2394C13.3356 19.3111 13.4303 19.347 13.524 19.347C13.6178 19.347 13.7126 19.3111 13.7842 19.2394L18.326 14.6975C18.4695 14.554 18.4695 14.3214 18.326 14.1779C18.1826 14.0344 17.949 14.0344 17.8055 14.1779L13.2639 18.7197Z" fill="#FF8E01" stroke="#FF8E01" stroke-width="0.5"/>
</svg>
