<svg width="32" height="33" viewBox="0 0 32 33" fill="none" xmlns="http://www.w3.org/2000/svg">
<path d="M25.3201 25.504H6.67991C6.23459 25.5033 5.80756 25.3263 5.49264 25.0112C5.17768 24.6962 5.00045 24.2692 5 23.8239V14.1838C5.00045 13.7385 5.17768 13.3114 5.49264 12.9965C5.8076 12.6813 6.23459 12.5043 6.67991 12.5037H25.3201C25.7654 12.5043 26.1924 12.6813 26.5074 12.9965C26.8223 13.3115 26.9996 13.7385 27 14.1838V23.8239C26.9996 24.2692 26.8223 24.6962 26.5074 25.0112C26.1924 25.3263 25.7654 25.5033 25.3201 25.504ZM6.67991 13.5039C6.30446 13.5043 6.00042 13.8086 6.00002 14.184V23.8241C6.00046 24.1996 6.30448 24.5038 6.67991 24.5042H25.3201C25.6955 24.5038 25.9996 24.1995 26 23.8241V14.184C25.9995 13.8086 25.6955 13.5043 25.3201 13.5039H6.67991Z" fill="#FF8E01"/>
<path d="M12.0596 11.5039C11.873 11.5037 11.702 11.3997 11.6163 11.2341C11.5304 11.0687 11.5438 10.8689 11.6509 10.7164C11.7172 10.6222 11.7882 10.5334 11.8589 10.445V10.4448C12.1092 10.1963 12.2498 9.85837 12.25 9.50568C12.2502 9.15322 12.1096 8.81505 11.8596 8.56636C11.4676 8.14069 11.25 7.58332 11.25 7.00475C11.25 6.42594 11.4674 5.86856 11.8591 5.44267C12.0132 5.2775 12.1306 5.08173 12.2038 4.8681C12.2391 4.73952 12.3241 4.63015 12.4402 4.56475C12.5562 4.49912 12.6935 4.4826 12.8219 4.51876C12.9502 4.55492 13.0587 4.64086 13.1234 4.75738C13.188 4.8739 13.2036 5.01162 13.1663 5.13953C13.0594 5.48261 12.8799 5.79891 12.6404 6.0668C12.3895 6.31389 12.2487 6.6516 12.25 7.00383C12.2466 7.35652 12.3877 7.69538 12.6404 7.94133C13.0326 8.36789 13.2502 8.92637 13.25 9.50609C13.2498 10.0856 13.0317 10.6438 12.6391 11.0702C12.5813 11.1425 12.523 11.2141 12.4692 11.2914C12.3755 11.4248 12.2226 11.5041 12.0596 11.5039L12.0596 11.5039Z" fill="#FF8E01"/>
<path d="M19.5596 11.5039C19.373 11.5037 19.202 11.3997 19.1163 11.2341C19.0304 11.0687 19.0438 10.8689 19.1509 10.7164C19.2172 10.6222 19.2882 10.5334 19.3589 10.445V10.4448C19.6092 10.1963 19.7498 9.85837 19.75 9.50568C19.7502 9.15322 19.6096 8.81505 19.3596 8.56636C18.9676 8.14069 18.75 7.58332 18.75 7.00475C18.75 6.42594 18.9674 5.86856 19.3591 5.44267C19.5132 5.2775 19.6306 5.08173 19.7038 4.8681C19.7391 4.73952 19.8241 4.63015 19.9402 4.56475C20.0562 4.49912 20.1935 4.4826 20.3219 4.51876C20.4502 4.55492 20.5587 4.64086 20.6234 4.75738C20.688 4.8739 20.7036 5.01162 20.6663 5.13953C20.5594 5.48261 20.3799 5.79891 20.1404 6.0668C19.8895 6.31389 19.7487 6.6516 19.75 7.00383C19.7466 7.35652 19.8877 7.69538 20.1404 7.94133C20.5326 8.36789 20.7502 8.92637 20.75 9.50609C20.7498 10.0856 20.5317 10.6438 20.1391 11.0702C20.0813 11.1425 20.023 11.2141 19.9692 11.2914C19.8755 11.4248 19.7226 11.5041 19.5596 11.5039L19.5596 11.5039Z" fill="#FF8E01"/>
<path d="M15.5596 11.5039C15.373 11.5037 15.202 11.3997 15.1163 11.2341C15.0304 11.0687 15.0438 10.8689 15.1509 10.7164C15.2172 10.6222 15.2882 10.5334 15.3589 10.445V10.4448C15.6092 10.1963 15.7498 9.85837 15.75 9.50568C15.7502 9.15322 15.6096 8.81505 15.3596 8.56636C14.9676 8.14069 14.75 7.58332 14.75 7.00475C14.75 6.42594 14.9674 5.86856 15.3591 5.44267C15.5132 5.2775 15.6306 5.08173 15.7038 4.8681C15.7391 4.73952 15.8241 4.63015 15.9402 4.56475C16.0562 4.49912 16.1935 4.4826 16.3219 4.51876C16.4502 4.55492 16.5587 4.64086 16.6234 4.75738C16.688 4.8739 16.7036 5.01162 16.6663 5.13953C16.5594 5.48261 16.3799 5.79891 16.1404 6.0668C15.8895 6.31389 15.7487 6.6516 15.75 7.00383C15.7466 7.35652 15.8877 7.69538 16.1404 7.94133C16.5326 8.36789 16.7502 8.92637 16.75 9.50609C16.7498 10.0856 16.5317 10.6438 16.1391 11.0702C16.0813 11.1425 16.023 11.2141 15.9692 11.2914C15.8755 11.4248 15.7226 11.5041 15.5596 11.5039L15.5596 11.5039Z" fill="#FF8E01"/>
<path d="M14.5 23.5041C14.3674 23.5041 14.2402 23.4514 14.1464 23.3577C14.0527 23.2639 14 23.1367 14 23.0041V16.004C14 15.7279 14.2239 15.504 14.5 15.504C14.7761 15.504 15 15.7279 15 16.004V23.0041C15 23.1367 14.9473 23.2639 14.8536 23.3577C14.7598 23.4514 14.6326 23.5041 14.5 23.5041Z" fill="#FF8E01"/>
<path d="M17.5 23.5041C17.3674 23.5041 17.2402 23.4514 17.1464 23.3577C17.0527 23.2639 17 23.1367 17 23.0041V16.004C17 15.7279 17.2239 15.504 17.5 15.504C17.7761 15.504 18 15.7279 18 16.004V23.0041C18 23.1367 17.9473 23.2639 17.8536 23.3577C17.7598 23.4514 17.6326 23.5041 17.5 23.5041Z" fill="#FF8E01"/>
<path d="M11.5 23.504C11.3674 23.504 11.2402 23.4513 11.1464 23.3576C11.0527 23.2638 11 23.1366 11 23.004V16.0039C11 15.7278 11.2239 15.5039 11.5 15.5039C11.7761 15.5039 12 15.7278 12 16.0039V23.004C12 23.1366 11.9473 23.2638 11.8536 23.3576C11.7598 23.4513 11.6326 23.504 11.5 23.504Z" fill="#FF8E01"/>
<path d="M8.5 23.5041C8.36742 23.5041 8.24018 23.4514 8.14643 23.3577C8.05268 23.2639 8 23.1367 8 23.0041V16.004C8 15.7279 8.22389 15.504 8.5 15.504C8.77612 15.504 9.00001 15.7279 9.00001 16.004V23.0041C9.00001 23.1367 8.94733 23.2639 8.85358 23.3577C8.75983 23.4514 8.63259 23.5041 8.5 23.5041Z" fill="#FF8E01"/>
<path d="M20.5 23.5041C20.3674 23.5041 20.2402 23.4514 20.1464 23.3577C20.0527 23.2639 20 23.1367 20 23.0041V16.004C20 15.7279 20.2239 15.504 20.5 15.504C20.7761 15.504 21 15.7279 21 16.004V23.0041C21 23.1367 20.9473 23.2639 20.8536 23.3577C20.7598 23.4514 20.6326 23.5041 20.5 23.5041Z" fill="#FF8E01"/>
<path d="M23.5 23.504C23.3674 23.504 23.2402 23.4513 23.1464 23.3576C23.0527 23.2638 23 23.1366 23 23.004V16.0039C23 15.7278 23.2239 15.5039 23.5 15.5039C23.7761 15.5039 24 15.7278 24 16.0039V23.004C24 23.1366 23.9473 23.2638 23.8536 23.3576C23.7598 23.4513 23.6326 23.504 23.5 23.504Z" fill="#FF8E01"/>
<path d="M8.00003 28.004C7.60226 28.0035 7.221 27.8453 6.93974 27.5642C6.65871 27.283 6.50045 26.9017 6.5 26.5039V25.0039C6.5 24.8713 6.55268 24.7441 6.64643 24.6503C6.74018 24.5566 6.86742 24.5039 7 24.5039H9.00002C9.13261 24.5039 9.25985 24.5566 9.3536 24.6503C9.44735 24.7441 9.50003 24.8713 9.50003 25.0039V26.5039C9.49958 26.9017 9.34133 27.283 9.06029 27.5642C8.77904 27.8453 8.39777 28.0035 8 28.004H8.00003ZM7.50003 25.5039V26.5039C7.50003 26.7801 7.72392 27.0039 8.00003 27.0039C8.27615 27.0039 8.50004 26.7801 8.50004 26.5039V25.5039H7.50003Z" fill="#FF8E01"/>
<path d="M24 28.0041C23.6023 28.0036 23.221 27.8454 22.9397 27.5643C22.6587 27.2831 22.5004 26.9018 22.5 26.504V25.004C22.5 24.8714 22.5527 24.7442 22.6464 24.6505C22.7402 24.5567 22.8674 24.504 23 24.504H25C25.1326 24.504 25.2598 24.5567 25.3536 24.6505C25.4473 24.7442 25.5 24.8714 25.5 25.004V26.504C25.4996 26.9018 25.3413 27.2831 25.0603 27.5643C24.779 27.8454 24.3978 28.0036 24 28.0041H24ZM23.5 25.5041V26.5041C23.5 26.7802 23.7239 27.0041 24 27.0041C24.2761 27.0041 24.5 26.7802 24.5 26.5041V25.5041H23.5Z" fill="#FF8E01"/>
</svg>
