<svg width="32" height="33" viewBox="0 0 32 33" fill="none" xmlns="http://www.w3.org/2000/svg">
<path d="M26.5223 21.8402V20.3489L26.9567 19.0457C26.9723 18.9991 26.9802 18.9502 26.9802 18.901V14.3218C26.9802 14.0689 26.7752 13.8638 26.5223 13.8638H24.2327C23.9798 13.8638 23.7748 14.0689 23.7748 14.3218V18.901C23.7748 18.9502 23.7828 18.9991 23.7983 19.0457L24.2327 20.3489V21.6485H22.1704C22.0165 20.8373 21.7871 20.0421 21.4852 19.2736V11.7426C21.4852 7.19749 17.7877 3.5 13.2426 3.5C8.69749 3.5 5 7.19749 5 11.7426V14.948C5 15.2009 5.20504 15.406 5.45792 15.406H8.20545C8.45833 15.406 8.66337 15.2009 8.66337 14.948V11.7426C8.66337 10.1065 9.53609 8.59481 10.953 7.77688C12.3699 6.95896 14.1153 6.95896 15.5322 7.77688C16.9491 8.59481 17.8218 10.1066 17.8218 11.7426V19.2736C17.5199 20.0421 17.2905 20.8373 17.1365 21.6485H15.0743V20.3489L15.5087 19.0457C15.5242 18.9991 15.5322 18.9502 15.5322 18.901V14.3218C15.5322 14.0689 15.3271 13.8638 15.0743 13.8638H12.7847C12.5318 13.8638 12.3267 14.0689 12.3267 14.3218V18.901C12.3267 18.9502 12.3347 18.9991 12.3503 19.0457L12.7847 20.3489V21.8402C12.1368 22.123 11.656 22.6888 11.4817 23.3737C11.3073 24.0585 11.4592 24.7856 11.893 25.3436C12.3266 25.9015 12.9938 26.2279 13.7005 26.2278H16.906V28.5174C16.906 28.7702 17.111 28.9753 17.3639 28.9753H21.9431C22.196 28.9753 22.401 28.7702 22.401 28.5174V26.2278H25.6065C26.3132 26.228 26.9805 25.9015 27.414 25.3436C27.8478 24.7857 27.9997 24.0585 27.8254 23.3737C27.651 22.6888 27.1701 22.123 26.5223 21.8402ZM13.2426 6.24769C11.7856 6.24932 10.389 6.82885 9.35883 7.85899C8.32869 8.88913 7.74915 10.2858 7.74753 11.7427V14.4903H5.91584V11.7427C5.91584 9.12521 7.31232 6.70644 9.57921 5.39778C11.8461 4.08881 14.6391 4.08881 16.906 5.39778C19.1728 6.70655 20.5693 9.12537 20.5693 11.7427V18.9012H18.7376V11.7427C18.736 10.2858 18.1565 8.88913 17.1263 7.85899C16.0962 6.82885 14.6996 6.24931 13.2426 6.24769ZM13.677 20.13L13.2426 18.8267V14.7797H14.6163V18.8267L14.1819 20.13C14.1664 20.1766 14.1584 20.2254 14.1584 20.2747V21.6485H13.7005V20.2747C13.7005 20.2254 13.6925 20.1766 13.677 20.13ZM12.3267 23.9381C12.3271 23.5738 12.4721 23.2246 12.7295 22.967C12.987 22.7097 13.3362 22.5647 13.7005 22.5643H14.1584V25.3118H13.7005C13.3362 25.3114 12.987 25.1665 12.7295 24.9091C12.4721 24.6515 12.3271 24.3024 12.3267 23.9381ZM15.0743 25.3119V22.5643H16.9963C16.9362 23.0789 16.906 23.5965 16.906 24.1145V25.3119H15.0743ZM21.4852 28.0594H17.8218V24.1145C17.8206 22.6473 18.082 21.1918 18.5937 19.8168H20.7132C21.2249 21.1918 21.4864 22.6473 21.4852 24.1145V28.0594ZM24.6906 14.7797H26.0644V18.8267L25.63 20.13C25.6144 20.1766 25.6064 20.2254 25.6064 20.2747V21.6485H25.1485V20.2747C25.1485 20.2254 25.1406 20.1766 25.125 20.13L24.6906 18.8267L24.6906 14.7797ZM22.3106 22.5643H24.2327V25.3119H22.401V24.1145C22.401 23.5965 22.3707 23.0789 22.3106 22.5643ZM25.6065 25.3119H25.1485V22.5643H25.6065C26.0973 22.5643 26.5507 22.8262 26.7962 23.2512C27.0415 23.6762 27.0415 24.2 26.7962 24.625C26.5507 25.05 26.0973 25.3119 25.6065 25.3119Z" fill="#FF8E01"/>
<path d="M7.21182 16.704C7.12678 16.5765 6.98388 16.5 6.83077 16.5C6.67766 16.5 6.53476 16.5765 6.44972 16.704L5.7878 17.6967H5.788C5.57172 18.0201 5.45662 18.4006 5.45703 18.7896C5.45703 19.2805 5.71891 19.7339 6.14391 19.9794C6.56892 20.2247 7.09268 20.2247 7.51768 19.9794C7.94269 19.7339 8.20456 19.2805 8.20456 18.7896C8.20497 18.4006 8.08988 18.0202 7.87359 17.6967L7.21182 16.704ZM6.83077 19.2476C6.57789 19.2473 6.37305 19.0425 6.37285 18.7896C6.37264 18.5813 6.43418 18.3779 6.54988 18.2047L6.83077 17.7834L7.11166 18.2047C7.22736 18.3779 7.28889 18.5813 7.28869 18.7896C7.28849 19.0425 7.08365 19.2473 6.83077 19.2476Z" fill="#FF8E01"/>
</svg>
