<svg width="32" height="33" viewBox="0 0 32 33" fill="none" xmlns="http://www.w3.org/2000/svg">
<path d="M15.3915 6.81763V10.144H16.0826V6.81763L17.5515 8.30809L18.0483 7.81132L15.7371 5.5L13.4043 7.81132L13.9011 8.30809L15.3915 6.81763Z" fill="#FF8E01" stroke="#FF8E01" stroke-width="0.5"/>
<path d="M22.993 6.81763V10.144H23.6841V6.81763L25.1746 8.30809L25.6714 7.81132L23.3385 5.5L21.0273 7.81132L21.5026 8.30809L22.993 6.81763Z" fill="#FF8E01" stroke="#FF8E01" stroke-width="0.5"/>
<path d="M7.76451 6.81763V10.144H8.45564V6.81763L9.94611 8.30809L10.4429 7.81132L8.11015 5.5L5.79883 7.81132L6.27404 8.30809L7.76451 6.81763Z" fill="#FF8E01" stroke="#FF8E01" stroke-width="0.5"/>
<path d="M24.3755 22.9526H7.76478C7.00869 22.9526 6.38235 22.3263 6.38235 21.5702C6.38235 20.8141 7.00869 20.1878 7.76478 20.1878H23.6843C24.8291 20.1878 25.758 19.259 25.758 18.1141C25.758 16.9692 24.8293 16.0403 23.6843 16.0403L7.07356 16.0405C6.31747 16.0405 5.69114 15.4142 5.69114 14.6581C5.69114 13.902 6.31747 13.2756 7.07356 13.2756H26.1035V12.5844H7.07356C5.92874 12.5628 5 13.4916 5 14.6364C5 15.7812 5.92874 16.7101 7.07372 16.7101H23.6844C24.4405 16.7101 25.0669 17.3364 25.0669 18.0925C25.0669 18.8486 24.4405 19.4749 23.6844 19.4749H7.76493C6.62011 19.4749 5.69121 20.4037 5.69121 21.5486C5.69121 22.6935 6.62011 23.6437 7.76493 23.6437H24.3757C25.1318 23.6437 25.7581 24.2701 25.7581 25.0262C25.7581 25.7823 25.1318 26.4086 24.3757 26.4086H5.34568V27.0999H24.3757C25.5205 27.0999 26.4494 26.1711 26.4494 25.0262C26.4492 23.8813 25.5205 22.9526 24.3757 22.9526L24.3755 22.9526Z" fill="#FF8E01" stroke="#FF8E01" stroke-width="0.5"/>
</svg>
