<svg width="32" height="33" viewBox="0 0 32 33" fill="none" xmlns="http://www.w3.org/2000/svg">
<path d="M22.9473 20.388C23.757 20.388 24.5334 20.0664 25.1059 19.4939C25.6783 18.9215 25.9999 18.1451 25.9999 17.3356V12.4475C25.9999 11.6373 25.6785 10.8603 25.1062 10.2866C24.5341 9.71304 23.7575 9.39006 22.9473 9.38816H21.1118V8.16446H23.5524C23.7152 8.16619 23.872 8.10249 23.9871 7.98734C24.1023 7.87218 24.1662 7.71543 24.1643 7.55263V5.11201C24.1643 4.94973 24.0999 4.79401 23.9851 4.67937C23.8703 4.56457 23.7147 4.5 23.5524 4.5H13.7763C13.4383 4.5 13.1643 4.77398 13.1643 5.11202V7.55264C13.1643 7.71475 13.2289 7.87047 13.3437 7.98528C13.4583 8.09992 13.614 8.16448 13.7763 8.16448H16.2238L16.2237 9.38817H14.3882C13.633 9.39128 12.9061 9.67407 12.3474 10.182C11.7885 10.6899 11.4379 11.3868 11.3631 12.1382H9.50002V10C9.50002 9.83774 9.43563 9.68219 9.32082 9.56738C9.20601 9.45258 9.05047 9.38818 8.88818 9.38818H6.44756C6.10971 9.38818 5.83571 9.66216 5.83571 10V14.2761L4.61202 14.2763C4.274 14.2763 4 14.5501 4 14.8882C4 15.226 4.27398 15.5 4.61202 15.5H5.83571V21.6118H4.61202C4.274 21.6118 4 21.8858 4 22.2237V25.888C4 26.0502 4.06457 26.206 4.17937 26.3206C4.29401 26.4354 4.44973 26.5 4.61201 26.5H25.388C25.5503 26.5 25.706 26.4354 25.8206 26.3206C25.9354 26.206 26 26.0502 26 25.888V22.2237C26 22.0614 25.9354 21.9059 25.8206 21.791C25.706 21.6762 25.5503 21.6118 25.388 21.6118H21.1119V20.3882L22.9473 20.388ZM14.3884 5.72384H22.9473V6.94753H14.3884V5.72384ZM17.4478 8.16446H19.8884V9.38816H17.4478V8.16446ZM12.5531 12.4475H12.5529C12.5548 11.9611 12.7487 11.4954 13.0926 11.1515C13.4365 10.8076 13.9022 10.6137 14.3886 10.6118H22.9475C23.4333 10.6137 23.8984 10.8079 24.2411 11.152C24.5838 11.4959 24.7763 11.9619 24.7763 12.4475V17.3355C24.7763 17.8205 24.5836 18.2856 24.2408 18.6286C23.8977 18.9715 23.4327 19.1641 22.9475 19.1641H14.3886C13.903 19.1641 13.437 18.9718 13.0931 18.629C12.749 18.2863 12.5548 17.8212 12.5529 17.3355V12.4475H12.5531ZM9.50048 21.6119V17.6383H11.3636C11.4383 18.3896 11.789 19.0866 12.3478 19.5945C12.9065 20.1024 13.6335 20.3852 14.3886 20.3883H16.2243V21.6119L9.50048 21.6119ZM11.3361 13.3619V16.4143H9.50048V13.3619H11.3361ZM7.05314 10.6119H8.27683V19.1642H7.05314V10.6119ZM7.05314 20.388L8.27683 20.3882V21.6119H7.05314V20.388ZM24.7765 25.276H5.22432V22.8354H24.7765V25.276ZM19.8885 21.6118H17.4478V20.3881H19.8885V21.6118Z" fill="#FF8E01"/>
<path d="M14.3877 13.0523H22.9466C23.2577 13.0192 23.4939 12.7567 23.4939 12.4439C23.4939 12.1311 23.2578 11.8687 22.9466 11.8355H14.3877C14.2151 11.817 14.0428 11.8728 13.9138 11.989C13.7847 12.105 13.7109 12.2704 13.7109 12.4439C13.7109 12.6174 13.7847 12.7828 13.9138 12.8988C14.0428 13.015 14.215 13.0707 14.3877 13.0523V13.0523Z" fill="#FF8E01"/>
<path d="M14.3872 15.501H22.9462C23.2842 15.501 23.5582 15.2271 23.5582 14.8892C23.5582 14.5512 23.2842 14.2773 22.9462 14.2773H14.3872C14.0492 14.2773 13.7754 14.5512 13.7754 14.8892C13.7754 15.227 14.0492 15.501 14.3872 15.501Z" fill="#FF8E01"/>
<path d="M14.3872 17.9465H22.9462C23.2842 17.9465 23.5582 17.6725 23.5582 17.3347C23.5582 16.9967 23.2842 16.7227 22.9462 16.7227H14.3872C14.0492 16.7227 13.7754 16.9966 13.7754 17.3347C13.7754 17.6725 14.0492 17.9465 14.3872 17.9465Z" fill="#FF8E01"/>
</svg>
