<svg width="32" height="33" viewBox="0 0 32 33" fill="none" xmlns="http://www.w3.org/2000/svg">
<path d="M11.6524 12.4935C11.7019 12.7208 11.9034 12.8829 12.1358 12.8829C12.3685 12.8829 12.57 12.7208 12.6193 12.4935C12.9253 11.0872 14.0316 9.98132 15.4378 9.67497C15.6651 9.62543 15.8272 9.424 15.8272 9.19151C15.8272 8.95884 15.6651 8.75741 15.4378 8.70806C14.0317 8.40203 12.9257 7.29562 12.6193 5.8894C12.5698 5.66208 12.3683 5.5 12.1358 5.5C11.9032 5.5 11.7017 5.66208 11.6524 5.8894C11.3464 7.29562 10.24 8.40167 8.83374 8.70806C8.60641 8.7576 8.44434 8.95903 8.44434 9.19151C8.44434 9.42419 8.60641 9.62562 8.83374 9.67497C10.24 9.981 11.346 11.0874 11.6524 12.4935ZM12.1358 7.37789C12.5598 8.13787 13.1893 8.76705 13.9491 9.19112C13.1891 9.61504 12.5596 10.2445 12.1358 11.0043C11.7118 10.2444 11.0824 9.61487 10.3226 9.19112C11.0824 8.76702 11.7118 8.13787 12.1358 7.37789Z" fill="#FF8E01"/>
<path d="M6.9919 21.3894C6.81791 22.1888 6.1891 22.8174 5.3894 22.9919C5.16208 23.0414 5 23.2429 5 23.4754C5 23.708 5.16208 23.9095 5.38974 23.9588C6.18909 24.1328 6.8177 24.7616 6.99206 25.5611C7.0416 25.7888 7.24303 25.9509 7.47552 25.9509C7.70819 25.9509 7.90962 25.7888 7.95897 25.5615C8.13313 24.7619 8.76194 24.1332 9.56146 23.959C9.78878 23.9098 9.95121 23.7084 9.95121 23.4755C9.95121 23.2429 9.78913 23.0414 9.56181 22.9921C8.76228 22.8181 8.13332 22.1891 7.95914 21.3894C7.9096 21.1621 7.70817 21 7.47568 21C7.24232 20.9997 7.04123 21.1619 6.99188 21.3894L6.9919 21.3894ZM7.47535 22.7061C7.68438 23.0055 7.94501 23.2664 8.24447 23.4752C7.945 23.684 7.68418 23.9447 7.47535 24.244C7.26649 23.9445 7.00586 23.6837 6.70658 23.4752C7.00588 23.2663 7.2667 23.0055 7.47535 22.7061Z" fill="#FF8E01"/>
<path d="M7.46484 16.5893C7.46484 17.3943 8.08364 18.0564 8.87053 18.1268C8.88416 18.3322 8.90574 18.5371 8.94423 18.7386C9.32207 20.7045 10.8331 22.2395 12.7935 22.649C13.127 22.7182 13.4691 22.7536 13.8105 22.7536C16.4321 22.7536 18.5788 20.7061 18.7498 18.1272C19.5372 18.0571 20.1565 17.3948 20.1565 16.5896C20.1565 15.738 19.4637 15.0449 18.6119 15.0449H9.00954C8.15774 15.0447 7.46489 15.7376 7.46489 16.5894L7.46484 16.5893ZM13.8106 21.764C13.5368 21.764 13.2626 21.7359 12.9957 21.6801C11.4274 21.3527 10.2183 20.125 9.91626 18.5518C9.89003 18.4139 9.87242 18.2744 9.86051 18.1341H17.7594C17.588 20.164 15.8839 21.764 13.8105 21.764L13.8106 21.764ZM9.00963 16.0347H18.612C18.9178 16.0347 19.1667 16.2836 19.1667 16.5895C19.1667 16.8954 18.9178 17.1442 18.612 17.1442L9.00963 17.1444C8.70377 17.1444 8.45486 16.8955 8.45486 16.5897C8.45486 16.2838 8.70376 16.0347 9.00963 16.0347V16.0347Z" fill="#FF8E01"/>
<path d="M24.8839 9.43078C24.8839 8.5222 24.1448 7.78308 23.2362 7.78308H19.2782C18.3696 7.78308 17.6305 8.5222 17.6305 9.43078V13.6584C17.6305 13.9317 17.8523 14.1533 18.1253 14.1533C18.3985 14.1533 18.6202 13.9315 18.6202 13.6584V11.354H23.8939V24.5337C23.8939 24.7888 24.0877 25.0022 24.3418 25.0263C25.1224 25.1009 25.7453 25.646 25.9436 26.3678H12.2549C12.453 25.646 13.0759 25.1009 13.8566 25.0263C14.1105 25.0018 14.3046 24.7888 14.3046 24.5337V23.5702C14.3046 23.297 14.0828 23.0754 13.8097 23.0754C13.5365 23.0754 13.3149 23.2972 13.3149 23.5702V24.1196C12.0818 24.4383 11.1992 25.5479 11.1992 26.8629C11.1992 27.1361 11.421 27.3577 11.6941 27.3577H26.5048C26.778 27.3577 26.9996 27.1359 26.9996 26.8629C26.9996 25.5481 26.1172 24.4384 24.884 24.1196L24.8836 9.43047L24.8839 9.43078ZM18.6203 10.3642V9.43078C18.6203 9.06796 18.9155 8.77279 19.2783 8.77279H23.2362C23.599 8.77279 23.8942 9.06794 23.8942 9.43078V10.3642H18.6203Z" fill="#FF8E01"/>
<path d="M21.6592 13.5645H20.8562C20.5829 13.5645 20.3613 13.7863 20.3613 14.0593C20.3613 14.3325 20.5831 14.5542 20.8562 14.5542H21.6592C21.9324 14.5542 22.154 14.3324 22.154 14.0593C22.1542 13.7862 21.9327 13.5645 21.6592 13.5645Z" fill="#FF8E01"/>
<path d="M23.1294 16.9167C23.1294 16.6435 22.9076 16.4219 22.6345 16.4219C22.3613 16.4219 22.1396 16.6437 22.1396 16.9167V20.6336C22.1396 20.9069 22.3614 21.1285 22.6345 21.1285C22.9077 21.1285 23.1294 20.9067 23.1294 20.6336V16.9167Z" fill="#FF8E01"/>
<path d="M23.045 21.9858C23.0277 21.9585 23.0079 21.9311 22.9832 21.9088C22.8 21.7257 22.4685 21.7257 22.2853 21.9088C22.2606 21.9311 22.2408 21.9584 22.2235 21.9858C22.2064 22.0105 22.1888 22.0402 22.1768 22.0699C22.1647 22.0996 22.1569 22.1317 22.1495 22.1639C22.1421 22.1936 22.1396 22.2283 22.1396 22.2604C22.1396 22.3916 22.1916 22.5154 22.2857 22.6093C22.3326 22.6562 22.3846 22.6933 22.4443 22.7156C22.5061 22.7429 22.5681 22.7551 22.6349 22.7551C22.667 22.7551 22.6992 22.7501 22.7317 22.7453C22.7638 22.738 22.7961 22.7282 22.8258 22.7156C22.8527 22.7032 22.8824 22.6887 22.9098 22.6711C22.9373 22.6535 22.9618 22.6315 22.984 22.6093C23.0781 22.5152 23.1301 22.3914 23.1301 22.2604C23.1301 22.2283 23.1276 22.1936 23.1202 22.1639C23.113 22.1318 23.1054 22.0996 23.0933 22.0699C23.0793 22.0404 23.0622 22.0107 23.045 21.9858H23.045Z" fill="#FF8E01"/>
</svg>
