<svg width="32" height="33" viewBox="0 0 32 33" fill="none" xmlns="http://www.w3.org/2000/svg">
<path d="M11.9917 5.50006C11.7979 5.4977 11.6096 5.56336 11.46 5.68522C11.3104 5.80727 11.209 5.97769 11.1736 6.16668C11.1384 6.35565 11.1716 6.55082 11.2675 6.71779C11.3632 6.88494 11.5154 7.01299 11.6973 7.07937C11.879 7.14594 12.0785 7.14649 12.2607 7.08119C12.4428 7.0159 12.5959 6.88876 12.6927 6.72234H16.0891V9.57917C15.1016 9.68357 14.1921 10.1605 13.5493 10.9115C12.9063 11.6625 12.579 12.6297 12.635 13.6135C10.8282 14.3756 9.29099 15.6543 8.21985 17.2867C8.12084 17.4386 7.93272 17.5075 7.75799 17.456C7.58325 17.4045 7.46353 17.2449 7.46426 17.0639V16.9178C7.46426 16.2372 6.91256 15.6856 6.23204 15.6856C5.55159 15.6857 5 16.2373 5 16.9178V23.4168C5 24.0973 5.55164 24.649 6.23213 24.649C6.91262 24.649 7.46426 24.0973 7.46426 23.4168V23.2706C7.46353 23.0898 7.58326 22.9301 7.75799 22.8787C7.93273 22.8272 8.12085 22.8961 8.21985 23.048C9.42171 24.878 11.205 26.2574 13.2873 26.9674C15.3693 27.6775 17.6307 27.6775 19.7127 26.9674C21.7948 26.2574 23.5782 24.878 24.7801 23.048C24.8792 22.8961 25.0673 22.8272 25.242 22.8787C25.4168 22.9301 25.5365 23.0898 25.5357 23.2706V23.4168C25.5357 24.0973 26.0874 24.649 26.7679 24.649C27.4484 24.649 28 24.0973 28 23.4168V16.9178C28 16.2374 27.4484 15.6857 26.7679 15.6857C26.0874 15.6857 25.5357 16.2374 25.5357 16.9178V17.0641C25.5365 17.245 25.4167 17.4045 25.242 17.456C25.0673 17.5075 24.8792 17.4386 24.7801 17.2867C23.709 15.6543 22.1718 14.3756 20.365 13.6135C20.421 12.6297 20.0937 11.6625 19.4507 10.9115C18.8079 10.1605 17.8984 9.68356 16.9109 9.57917V6.72248H20.3073C20.4287 6.9311 20.6368 7.07551 20.8761 7.11735C21.1152 7.15918 21.3606 7.09388 21.5466 6.9391C21.7327 6.78432 21.8401 6.55587 21.8401 6.31489C21.8401 6.07407 21.7327 5.84563 21.5466 5.69067C21.3607 5.53589 21.1151 5.47059 20.8761 5.51243C20.6368 5.55426 20.4287 5.69886 20.3073 5.90748H12.693C12.5481 5.65848 12.2815 5.5037 11.9917 5.50006ZM16.6282 10.3765C17.3988 10.4087 18.1285 10.7294 18.6703 11.2738C19.2122 11.8183 19.5259 12.5464 19.548 13.3113C17.5667 12.6739 15.4329 12.6739 13.4517 13.3113C13.4752 12.5024 13.8245 11.7367 14.4214 11.1852C15.0185 10.6336 15.8131 10.3423 16.6282 10.3765ZM16.5592 13.6486C18.057 13.6584 19.529 14.0364 20.8434 14.7488C22.1581 15.4613 23.2739 16.4858 24.0915 17.7308C24.2858 18.0277 24.6003 18.2263 24.9536 18.2754C25.3069 18.3245 25.6645 18.2192 25.9336 17.9869C26.2026 17.7546 26.357 17.418 26.3568 17.064V16.5007H27.1782V23.8343L26.3568 23.8341V23.2706C26.357 22.9167 26.2026 22.5802 25.9336 22.3479C25.6645 22.1155 25.3069 22.0104 24.9536 22.0595C24.6005 22.1086 24.2858 22.3072 24.0915 22.6038C22.9895 24.2817 21.3544 25.5463 19.4455 26.1975C17.5365 26.8485 15.4631 26.8485 13.5539 26.1975C11.645 25.5464 10.0098 24.2817 8.9079 22.6038C8.71355 22.3072 8.39909 22.1086 8.04578 22.0595C7.69246 22.0104 7.3349 22.1155 7.06576 22.3479C6.79678 22.5802 6.6424 22.9169 6.64258 23.2708V23.8343L5.82116 23.8341V16.5006H6.64258V17.0641C6.6424 17.418 6.79678 17.7547 7.06576 17.9869C7.33492 18.2192 7.69248 18.3245 8.04578 18.2754C8.3991 18.2263 8.71357 18.0277 8.9079 17.7308C9.73645 16.4691 10.8712 15.4342 12.2081 14.7208C13.5449 14.0075 15.0412 13.6388 16.5592 13.6486Z" fill="#FF8E01" stroke="#FF8E01" stroke-width="0.5"/>
</svg>
