<svg width="32" height="33" viewBox="0 0 32 33" fill="none" xmlns="http://www.w3.org/2000/svg">
<path d="M15.5593 7.1087C15.877 6.22767 17.123 6.22767 17.4407 7.10871L19.2821 12.2152C19.4211 12.6007 19.7813 12.8624 20.1909 12.8755L25.6165 13.0488C26.5526 13.0787 26.9376 14.2637 26.1979 14.8381L21.9103 18.1674C21.5867 18.4187 21.4491 18.8421 21.5632 19.2357L23.075 24.4493C23.3358 25.3488 22.3278 26.0812 21.5529 25.5552L17.0617 22.5063C16.7226 22.2761 16.2774 22.2761 15.9383 22.5063L11.4471 25.5552C10.6722 26.0812 9.66416 25.3488 9.925 24.4493L11.4368 19.2357C11.5509 18.8421 11.4133 18.4187 11.0897 18.1674L6.80212 14.8381C6.06238 14.2637 6.44742 13.0787 7.38351 13.0488L12.8091 12.8755C13.2187 12.8624 13.5789 12.6007 13.7179 12.2152L15.5593 7.1087Z" stroke="#FF8E01" stroke-width="1.5"/>
</svg>
