<svg width="32" height="33" viewBox="0 0 32 33" fill="none" xmlns="http://www.w3.org/2000/svg">
<path d="M19.4927 13.7476H12.5065C12.0455 13.747 11.6035 13.5637 11.2775 13.2377C10.9515 12.9117 10.7682 12.4697 10.7676 12.0087V11.9716C10.7682 11.5104 10.9515 11.0686 11.2775 10.7426C11.6035 10.4166 12.0455 10.233 12.5065 10.2324H19.4927C19.9537 10.233 20.3958 10.4165 20.7218 10.7426C21.0478 11.0686 21.2311 11.5104 21.2317 11.9716V12.0087C21.2311 12.4697 21.0478 12.9117 20.7218 13.2377C20.3957 13.5637 19.9537 13.747 19.4927 13.7476ZM12.5065 11.1378C12.2855 11.138 12.0736 11.226 11.9173 11.3823C11.761 11.5386 11.6732 11.7506 11.673 11.9716V12.0087C11.6732 12.2297 11.761 12.4416 11.9173 12.5979C12.0736 12.7542 12.2855 12.842 12.5065 12.8422H19.4927C19.7138 12.842 19.9257 12.7542 20.082 12.5979C20.2383 12.4416 20.3261 12.2297 20.3263 12.0087V11.9716C20.3261 11.7506 20.2383 11.5386 20.082 11.3823C19.9257 11.226 19.7138 11.138 19.4927 11.1378H12.5065Z" fill="#FF8E01"/>
<path d="M16.0486 27.0385H15.9507C13.8267 27.0385 12.0986 25.3106 12.0986 23.1865V13.2964C12.0986 13.0464 12.3013 12.8438 12.5513 12.8438H19.4481C19.5681 12.8438 19.6833 12.8915 19.7682 12.9764C19.8531 13.0612 19.9008 13.1765 19.9008 13.2964V23.1865C19.9008 25.3104 18.1725 27.0385 16.0486 27.0385ZM13.004 13.7491V23.1865C13.0048 23.9678 13.3156 24.7166 13.868 25.2692C14.4205 25.8216 15.1694 26.1324 15.9507 26.1332H16.0486C16.8298 26.1324 17.5787 25.8216 18.1313 25.2692C18.6837 24.7166 18.9945 23.9678 18.9953 23.1865V13.7491H13.004Z" fill="#FF8E01"/>
<path d="M18.2516 11.1379C18.0016 11.1379 17.7989 10.9352 17.7989 10.6852V8.75304H14.2023V10.6852C14.2023 10.9352 13.9996 11.1379 13.7496 11.1379C13.4995 11.1379 13.2969 10.9352 13.2969 10.6852V8.30035C13.2969 8.05032 13.4995 7.84766 13.7496 7.84766H18.2516C18.3716 7.84766 18.4869 7.89541 18.5717 7.98027C18.6566 8.06512 18.7043 8.18037 18.7043 8.30035V10.6852C18.7043 10.8052 18.6566 10.9204 18.5717 11.0053C18.4869 11.0901 18.3716 11.1379 18.2516 11.1379H18.2516Z" fill="#FF8E01"/>
<path d="M19.4488 22.3277C19.1988 22.3277 18.9961 22.125 18.9961 21.875V19.5269C18.9961 19.2769 19.1988 19.0742 19.4488 19.0742C19.6988 19.0742 19.9015 19.2769 19.9015 19.5269V21.875C19.9015 21.995 19.8537 22.1102 19.7689 22.1951C19.684 22.2799 19.5688 22.3277 19.4488 22.3277Z" fill="#FF8E01"/>
<path d="M22.9977 8.75349H9.0025C8.75247 8.75349 8.5498 8.55082 8.5498 8.30079V5.95269C8.5498 5.70267 8.75247 5.5 9.0025 5.5H22.9977C23.1176 5.5 23.2329 5.54776 23.3177 5.63261C23.4026 5.71747 23.4503 5.83271 23.4503 5.95269V8.30079C23.4503 8.42078 23.4026 8.53602 23.3177 8.62088C23.2329 8.70573 23.1176 8.75349 22.9977 8.75349ZM9.45514 7.84809H22.545L22.5448 6.40533H9.45495L9.45514 7.84809Z" fill="#FF8E01"/>
<path d="M12.5521 18.0383C12.3021 18.0383 12.0996 17.8356 12.0996 17.5858V15.2377C12.0996 14.9876 12.3021 14.785 12.5521 14.785C12.8021 14.785 13.0048 14.9876 13.0048 15.2377V17.5858C13.0048 17.7057 12.957 17.8208 12.8722 17.9058C12.7873 17.9907 12.6723 18.0383 12.5521 18.0383Z" fill="#FF8E01"/>
<path d="M12.5516 23.1302H5.45269C5.20267 23.1302 5 22.9276 5 22.6775V20.3294V20.3296C5 20.0796 5.20267 19.877 5.45269 19.877H12.5516C12.8016 19.877 13.0043 20.0796 13.0043 20.3296C13.0043 20.5795 12.8016 20.7821 12.5516 20.7821H5.90534V22.2249L12.5516 22.2251C12.8016 22.2251 13.0043 22.4278 13.0043 22.6776C13.0043 22.9276 12.8016 23.1303 12.5516 23.1303V23.1302Z" fill="#FF8E01"/>
<path d="M7.8006 25.5043H5.45249C5.20267 25.5043 5 25.3016 5 25.0516V17.9527C5 17.7027 5.20267 17.5 5.45249 17.5H7.8006C7.92078 17.5 8.03582 17.5478 8.12068 17.6326C8.20553 17.7175 8.25329 17.8327 8.25329 17.9527V25.0516C8.25329 25.1717 8.20553 25.2868 8.12068 25.3716C8.03582 25.4567 7.92078 25.5043 7.8006 25.5043ZM5.90514 24.5989H7.3479L7.3481 18.4053H5.90534L5.90514 24.5989Z" fill="#FF8E01"/>
<path d="M26.5467 19.2182H19.4478C19.1978 19.2182 18.9951 19.0155 18.9951 18.7655C18.9951 18.5157 19.1978 18.313 19.4478 18.313H26.094V16.8702L19.4478 16.87C19.1978 16.87 18.9951 16.6674 18.9951 16.4173C18.9951 16.1675 19.1978 15.9648 19.4478 15.9648H26.5467C26.6667 15.9648 26.7819 16.0124 26.8668 16.0973C26.9516 16.1823 26.9994 16.2974 26.9994 16.4173V18.7654C26.9994 18.8856 26.9516 19.0007 26.8668 19.0855C26.7819 19.1704 26.6667 19.2181 26.5467 19.2181V19.2182Z" fill="#FF8E01"/>
<path d="M26.5477 21.5921H24.1996H24.1998C23.9497 21.5921 23.7471 21.3895 23.7471 21.1395V14.0406C23.7471 13.7906 23.9497 13.5879 24.1998 13.5879H26.5479H26.5477C26.6678 13.5879 26.7829 13.6356 26.8677 13.7205C26.9528 13.8054 27.0004 13.9206 27.0004 14.0406V21.1395C27.0004 21.2596 26.9528 21.3747 26.8677 21.4595C26.7829 21.5444 26.6678 21.5921 26.5477 21.5921ZM24.6522 20.6867H26.095L26.0952 14.4932H24.6524L24.6522 20.6867Z" fill="#FF8E01"/>
<path d="M16.0002 23.9391C15.5402 23.9433 15.0936 23.785 14.7388 23.4923C14.3488 23.164 14.1274 22.7002 14.098 22.1505C14.0508 21.267 14.5223 20.3622 14.9809 19.4876C15.2098 19.0493 15.4261 18.6357 15.5751 18.2347H15.5749C15.6408 18.0573 15.8101 17.9395 15.9994 17.9395C16.1886 17.9395 16.3578 18.0573 16.4237 18.2347C16.5738 18.6359 16.7915 19.0495 17.0179 19.4876C17.4753 20.3624 17.9481 21.267 17.9008 22.1505C17.8726 22.6999 17.6498 23.1638 17.26 23.4923C16.9056 23.7846 16.4596 23.9429 16.0002 23.9391H16.0002ZM15.0018 22.1029C15.0385 22.79 15.5625 23.0339 16.0002 23.0339C16.4379 23.0339 16.962 22.79 16.9985 22.1029C17.0325 21.4668 16.6181 20.6742 16.217 19.9073C16.1446 19.7689 16.0716 19.6288 16 19.4879C15.9283 19.6294 15.8553 19.7689 15.7829 19.9073C15.3821 20.6742 14.9675 21.4668 15.0014 22.1029H15.0018Z" fill="#FF8E01"/>
</svg>
