<svg width="32" height="32" viewBox="0 0 32 32" fill="none" xmlns="http://www.w3.org/2000/svg">
<path d="M25.3201 25.0041H6.67991C6.23459 25.0034 5.80756 24.8264 5.49264 24.5112C5.17768 24.1963 5.00045 23.7693 5 23.3239V13.6839C5.00045 13.2385 5.17768 12.8115 5.49264 12.4966C5.8076 12.1814 6.23459 12.0044 6.67991 12.0037H25.3201C25.7654 12.0044 26.1924 12.1814 26.5074 12.4966C26.8223 12.8115 26.9996 13.2385 27 13.6839V23.3239C26.9996 23.7693 26.8223 24.1963 26.5074 24.5112C26.1924 24.8264 25.7654 25.0034 25.3201 25.0041ZM6.67991 13.004C6.30446 13.0044 6.00042 13.3086 6.00002 13.6841V23.3242C6.00046 23.6996 6.30448 24.0039 6.67991 24.0043H25.3201C25.6955 24.0039 25.9996 23.6996 26 23.3242V13.6841C25.9995 13.3086 25.6955 13.0044 25.3201 13.004H6.67991Z" fill="#FF8E01" stroke="#FF8E01" stroke-width="0.5"/>
<path d="M12.0594 11.0039C11.8728 11.0037 11.7018 10.8997 11.6161 10.7341C11.5302 10.5687 11.5436 10.3689 11.6507 10.2164C11.717 10.1222 11.788 10.0334 11.8587 9.945V9.94478C12.109 9.69634 12.2496 9.35837 12.2498 9.00568C12.2501 8.65322 12.1094 8.31505 11.8594 8.06636C11.4675 7.64069 11.2498 7.08332 11.2498 6.50475C11.2498 5.92594 11.4672 5.36856 11.859 4.94267C12.013 4.7775 12.1304 4.58173 12.2036 4.3681C12.2389 4.23952 12.3239 4.13015 12.44 4.06475C12.5561 3.99912 12.6933 3.9826 12.8217 4.01876C12.95 4.05492 13.0585 4.14086 13.1233 4.25738C13.1878 4.3739 13.2034 4.51162 13.1661 4.63953C13.0592 4.98261 12.8797 5.29891 12.6402 5.5668C12.3893 5.81389 12.2485 6.1516 12.2498 6.50383C12.2465 6.85652 12.3875 7.19538 12.6402 7.44133C13.0324 7.86789 13.2501 8.42637 13.2498 9.00609C13.2496 9.58558 13.0315 10.1438 12.6389 10.5702C12.5811 10.6425 12.5228 10.7141 12.469 10.7914C12.3753 10.9248 12.2224 11.0041 12.0594 11.0039L12.0594 11.0039Z" fill="#FF8E01" stroke="#FF8E01" stroke-width="0.5"/>
<path d="M19.5595 11.0039C19.3729 11.0037 19.2019 10.8997 19.1162 10.7341C19.0302 10.5687 19.0436 10.3689 19.1508 10.2164C19.2171 10.1222 19.288 10.0334 19.3588 9.945V9.94478C19.609 9.69634 19.7497 9.35837 19.7499 9.00568C19.7501 8.65322 19.6095 8.31505 19.3595 8.06636C18.9675 7.64069 18.7499 7.08332 18.7499 6.50475C18.7499 5.92594 18.9673 5.36856 19.359 4.94267C19.513 4.7775 19.6305 4.58173 19.7037 4.3681C19.7389 4.23952 19.824 4.13015 19.9401 4.06475C20.0561 3.99912 20.1934 3.9826 20.3218 4.01876C20.4501 4.05492 20.5586 4.14086 20.6233 4.25738C20.6878 4.3739 20.7035 4.51162 20.6662 4.63953C20.5593 4.98261 20.3798 5.29891 20.1403 5.5668C19.8894 5.81389 19.7485 6.1516 19.7499 6.50383C19.7465 6.85652 19.8876 7.19538 20.1403 7.44133C20.5325 7.86789 20.7501 8.42637 20.7499 9.00609C20.7497 9.58558 20.5316 10.1438 20.139 10.5702C20.0812 10.6425 20.0229 10.7141 19.9691 10.7914C19.8753 10.9248 19.7224 11.0041 19.5595 11.0039L19.5595 11.0039Z" fill="#FF8E01" stroke="#FF8E01" stroke-width="0.5"/>
<path d="M15.5597 11.0039C15.3731 11.0037 15.2021 10.8997 15.1164 10.7341C15.0305 10.5687 15.0439 10.3689 15.151 10.2164C15.2173 10.1222 15.2883 10.0334 15.3591 9.945V9.94478C15.6093 9.69634 15.7499 9.35837 15.7501 9.00568C15.7504 8.65322 15.6097 8.31505 15.3597 8.06636C14.9678 7.64069 14.7501 7.08332 14.7501 6.50475C14.7501 5.92594 14.9675 5.36856 15.3593 4.94267C15.5133 4.7775 15.6307 4.58173 15.7039 4.3681C15.7392 4.23952 15.8242 4.13015 15.9403 4.06475C16.0564 3.99912 16.1937 3.9826 16.322 4.01876C16.4504 4.05492 16.5588 4.14086 16.6236 4.25738C16.6881 4.3739 16.7037 4.51162 16.6664 4.63953C16.5595 4.98261 16.38 5.29891 16.1405 5.5668C15.8896 5.81389 15.7488 6.1516 15.7501 6.50383C15.7468 6.85652 15.8878 7.19538 16.1405 7.44133C16.5327 7.86789 16.7504 8.42637 16.7501 9.00609C16.7499 9.58558 16.5318 10.1438 16.1392 10.5702C16.0814 10.6425 16.0231 10.7141 15.9693 10.7914C15.8756 10.9248 15.7227 11.0041 15.5597 11.0039L15.5597 11.0039Z" fill="#FF8E01" stroke="#FF8E01" stroke-width="0.5"/>
<path d="M14.5 22C14.3674 22 14.2402 21.9539 14.1464 21.8719C14.0527 21.7898 14 21.6785 14 21.5625V15.4375C14 15.1959 14.2239 15 14.5 15C14.7761 15 15 15.1959 15 15.4375V21.5625C15 21.6785 14.9473 21.7898 14.8536 21.8719C14.7598 21.9539 14.6326 22 14.5 22Z" fill="#FF8E01" stroke="#FF8E01" stroke-width="0.5"/>
<path d="M17.5 22C17.3674 22 17.2402 21.9539 17.1464 21.8719C17.0527 21.7898 17 21.6785 17 21.5625V15.4375C17 15.1959 17.2239 15 17.5 15C17.7761 15 18 15.1959 18 15.4375V21.5625C18 21.6785 17.9473 21.7898 17.8536 21.8719C17.7598 21.9539 17.6326 22 17.5 22Z" fill="#FF8E01" stroke="#FF8E01" stroke-width="0.5"/>
<path d="M11.5 22C11.3674 22 11.2402 21.9539 11.1464 21.8719C11.0527 21.7898 11 21.6785 11 21.5625V15.4375C11 15.1959 11.2239 15 11.5 15C11.7761 15 12 15.1959 12 15.4375V21.5625C12 21.6785 11.9473 21.7898 11.8536 21.8719C11.7598 21.9539 11.6326 22 11.5 22Z" fill="#FF8E01" stroke="#FF8E01" stroke-width="0.5"/>
<path d="M8.5 22C8.36741 22 8.24018 21.9539 8.14643 21.8719C8.05268 21.7898 8 21.6785 8 21.5625V15.4375C8 15.1959 8.22389 15 8.5 15C8.77611 15 9 15.1959 9 15.4375V21.5625C9 21.6785 8.94732 21.7898 8.85357 21.8719C8.75982 21.9539 8.63259 22 8.5 22Z" fill="#FF8E01" stroke="#FF8E01" stroke-width="0.5"/>
<path d="M20.5 22C20.3674 22 20.2402 21.9539 20.1464 21.8719C20.0527 21.7898 20 21.6785 20 21.5625V15.4375C20 15.1959 20.2239 15 20.5 15C20.7761 15 21 15.1959 21 15.4375V21.5625C21 21.6785 20.9473 21.7898 20.8536 21.8719C20.7598 21.9539 20.6326 22 20.5 22Z" fill="#FF8E01" stroke="#FF8E01" stroke-width="0.5"/>
<path d="M23.5 22C23.3674 22 23.2402 21.9539 23.1464 21.8719C23.0527 21.7898 23 21.6785 23 21.5625V15.4375C23 15.1959 23.2239 15 23.5 15C23.7761 15 24 15.1959 24 15.4375V21.5625C24 21.6785 23.9473 21.7898 23.8536 21.8719C23.7598 21.9539 23.6326 22 23.5 22Z" fill="#FF8E01" stroke="#FF8E01" stroke-width="0.5"/>
<path d="M8.00003 27.504C7.60226 27.5035 7.221 27.3453 6.93974 27.0642C6.65871 26.783 6.50045 26.4017 6.5 26.0039V24.5039C6.5 24.3713 6.55268 24.2441 6.64643 24.1503C6.74018 24.0566 6.86742 24.0039 7 24.0039H9.00002C9.13261 24.0039 9.25985 24.0566 9.3536 24.1503C9.44735 24.2441 9.50003 24.3713 9.50003 24.5039V26.0039C9.49958 26.4017 9.34133 26.783 9.06029 27.0642C8.77904 27.3453 8.39777 27.5035 8 27.504H8.00003ZM7.50003 25.0039V26.0039C7.50003 26.2801 7.72392 26.5039 8.00003 26.5039C8.27615 26.5039 8.50004 26.2801 8.50004 26.0039V25.0039H7.50003Z" fill="#FF8E01" stroke="#FF8E01" stroke-width="0.5"/>
<path d="M24.0002 27.5041C23.6024 27.5036 23.2211 27.3454 22.9399 27.0643C22.6588 26.7831 22.5006 26.4018 22.5001 26.004V24.504C22.5001 24.3714 22.5528 24.2442 22.6466 24.1505C22.7403 24.0567 22.8675 24.004 23.0001 24.004H25.0001C25.1327 24.004 25.26 24.0567 25.3537 24.1505C25.4475 24.2442 25.5002 24.3714 25.5002 24.504V26.004C25.4997 26.4018 25.3414 26.7831 25.0604 27.0643C24.7792 27.3454 24.3979 27.5036 24.0001 27.5041H24.0002ZM23.5001 25.0041V26.0041C23.5001 26.2802 23.724 26.5041 24.0002 26.5041C24.2763 26.5041 24.5002 26.2802 24.5002 26.0041V25.0041H23.5001Z" fill="#FF8E01" stroke="#FF8E01" stroke-width="0.5"/>
</svg>
