<svg width="32" height="32" viewBox="0 0 32 32" fill="none" xmlns="http://www.w3.org/2000/svg">
<path d="M26.5223 21.3402V19.8489L26.9567 18.5457C26.9723 18.4991 26.9802 18.4502 26.9802 18.401V13.8218C26.9802 13.5689 26.7752 13.3638 26.5223 13.3638H24.2327C23.9798 13.3638 23.7748 13.5689 23.7748 13.8218V18.401C23.7748 18.4502 23.7828 18.4991 23.7983 18.5457L24.2327 19.8489V21.1485H22.1704C22.0165 20.3373 21.7871 19.5421 21.4852 18.7736V11.2426C21.4852 6.69749 17.7877 3 13.2426 3C8.69749 3 5 6.69749 5 11.2426V14.448C5 14.7009 5.20504 14.906 5.45792 14.906H8.20545C8.45833 14.906 8.66337 14.7009 8.66337 14.448V11.2426C8.66337 9.60652 9.53609 8.09481 10.953 7.27688C12.3699 6.45896 14.1153 6.45896 15.5322 7.27688C16.9491 8.09481 17.8218 9.60658 17.8218 11.2426V18.7736C17.5199 19.5421 17.2905 20.3373 17.1365 21.1485H15.0743V19.8489L15.5087 18.5457C15.5242 18.4991 15.5322 18.4502 15.5322 18.401V13.8218C15.5322 13.5689 15.3271 13.3638 15.0743 13.3638H12.7847C12.5318 13.3638 12.3267 13.5689 12.3267 13.8218V18.401C12.3267 18.4502 12.3347 18.4991 12.3503 18.5457L12.7847 19.8489V21.3402C12.1368 21.623 11.656 22.1888 11.4817 22.8737C11.3073 23.5585 11.4592 24.2856 11.893 24.8436C12.3266 25.4015 12.9938 25.7279 13.7005 25.7278H16.906V28.0174C16.906 28.2702 17.111 28.4753 17.3639 28.4753H21.9431C22.196 28.4753 22.401 28.2702 22.401 28.0174V25.7278H25.6065C26.3132 25.728 26.9805 25.4015 27.414 24.8436C27.8478 24.2857 27.9997 23.5585 27.8254 22.8737C27.651 22.1888 27.1701 21.623 26.5223 21.3402ZM13.2426 5.74769C11.7856 5.74932 10.389 6.32885 9.35883 7.35899C8.32869 8.38913 7.74915 9.78577 7.74753 11.2427V13.9903H5.91584V11.2427C5.91584 8.62521 7.31232 6.20644 9.57921 4.89778C11.8461 3.58881 14.6391 3.58881 16.906 4.89778C19.1728 6.20655 20.5693 8.62537 20.5693 11.2427V18.4012H18.7376V11.2427C18.736 9.78577 18.1565 8.38913 17.1263 7.35899C16.0962 6.32885 14.6996 5.74931 13.2426 5.74769ZM13.677 19.63L13.2426 18.3267V14.2797H14.6163V18.3267L14.1819 19.63C14.1664 19.6766 14.1584 19.7254 14.1584 19.7747V21.1485H13.7005V19.7747C13.7005 19.7254 13.6925 19.6766 13.677 19.63ZM12.3267 23.4381C12.3271 23.0738 12.4721 22.7246 12.7295 22.467C12.987 22.2097 13.3362 22.0647 13.7005 22.0643H14.1584V24.8118H13.7005C13.3362 24.8114 12.987 24.6665 12.7295 24.4091C12.4721 24.1515 12.3271 23.8024 12.3267 23.4381ZM15.0743 24.8119V22.0643H16.9963C16.9362 22.5789 16.906 23.0965 16.906 23.6145V24.8119H15.0743ZM21.4852 27.5594H17.8218V23.6145C17.8206 22.1473 18.082 20.6918 18.5937 19.3168H20.7132C21.2249 20.6918 21.4864 22.1473 21.4852 23.6145V27.5594ZM24.6906 14.2797H26.0644V18.3267L25.63 19.63C25.6144 19.6766 25.6064 19.7254 25.6064 19.7747V21.1485H25.1485V19.7747C25.1485 19.7254 25.1406 19.6766 25.125 19.63L24.6906 18.3267L24.6906 14.2797ZM22.3106 22.0643H24.2327V24.8119H22.401V23.6145C22.401 23.0965 22.3707 22.5789 22.3106 22.0643ZM25.6065 24.8119H25.1485V22.0643H25.6065C26.0973 22.0643 26.5507 22.3262 26.7962 22.7512C27.0415 23.1762 27.0415 23.7 26.7962 24.125C26.5507 24.55 26.0973 24.8119 25.6065 24.8119Z" fill="#FF8E01" stroke="#FF8E01" stroke-width="0.5"/>
<path d="M7.20792 16.204C7.12287 16.0765 6.97998 16 6.82686 16C6.67375 16 6.53085 16.0765 6.44581 16.204L5.78389 17.1967H5.7841C5.56781 17.5201 5.45272 17.9006 5.45313 18.2896C5.45313 18.7805 5.715 19.2339 6.14001 19.4794C6.56502 19.7247 7.08877 19.7247 7.51377 19.4794C7.93878 19.2339 8.20065 18.7805 8.20065 18.2896C8.20106 17.9006 8.08597 17.5202 7.86968 17.1967L7.20792 16.204ZM6.82686 18.7476C6.57399 18.7473 6.36915 18.5425 6.36894 18.2896C6.36874 18.0813 6.43027 17.8779 6.54598 17.7047L6.82686 17.2834L7.10775 17.7047C7.22345 17.8779 7.28499 18.0813 7.28478 18.2896C7.28458 18.5425 7.07974 18.7473 6.82686 18.7476Z" fill="#FF8E01" stroke="#FF8E01" stroke-width="0.5"/>
</svg>
