<svg width="24" height="24" viewBox="0 0 24 24" fill="none" xmlns="http://www.w3.org/2000/svg">
<path d="M21.6637 14.8843C22.7899 16.0474 23.2549 17.7665 22.8633 19.3846C22.8143 19.5869 22.643 19.7637 22.4472 19.8144C22.2513 19.865 22.031 19.8144 21.8841 19.6627L20.2195 17.9436C20.0726 17.7919 19.8523 17.6907 19.6319 17.6907C19.4116 17.6907 19.2157 17.7665 19.0443 17.9436L18.2854 18.7273C18.1385 18.8789 18.0405 19.1064 18.0405 19.3341C18.0405 19.5616 18.1139 19.7639 18.2854 19.9409L20.0481 21.7613C20.1949 21.9129 20.2439 22.1152 20.1949 22.3427C20.1459 22.545 19.999 22.7219 19.8032 22.7725C19.338 22.9242 18.8728 23 18.3833 23C17.1836 23 16.0329 22.5196 15.1516 21.6094C14.1724 20.5982 13.6826 19.1822 13.8541 17.7412C13.9275 17.1598 13.7317 16.6035 13.3645 16.199L8.35506 11.007C7.98791 10.6279 7.44929 10.4256 6.88609 10.4508C5.56418 10.5519 4.26648 10.0463 3.33632 9.08565C2.21009 7.92257 1.74511 6.20345 2.13668 4.58537C2.1857 4.38309 2.35698 4.20621 2.55285 4.15559C2.74872 4.10498 2.96901 4.15559 3.11588 4.30726L4.78053 6.02638C5.09884 6.35511 5.61286 6.35511 5.93116 6.02638L6.69004 5.24267C7.00835 4.91394 7.00835 4.38311 6.69004 4.05439L4.92737 2.23405C4.78051 2.08239 4.7315 1.88011 4.78051 1.6526C4.82952 1.45032 4.97639 1.27344 5.17225 1.22282C6.81251 0.691802 8.59957 1.12177 9.79925 2.38591C10.7784 3.39712 11.2682 4.81311 11.0968 6.25412C11.0233 6.86095 11.2192 7.4424 11.6354 7.8722L16.5714 12.9883C16.9385 13.3675 17.4771 13.5697 18.0403 13.5445C19.4359 13.4179 20.7333 13.9235 21.6637 14.8843ZM21.0272 15.567C20.2927 14.8084 19.2401 14.4039 18.1873 14.4799C17.4038 14.5305 16.6449 14.2524 16.0819 13.7214C16.0575 13.6962 16.0329 13.6962 16.0085 13.6708L11.0725 8.55468C10.4604 7.92262 10.1911 7.06307 10.289 6.17809C10.4114 5.04042 10.0197 3.90276 9.23637 3.09363C8.40404 2.23407 7.2288 1.85474 6.07834 2.03176L7.42487 3.42234C8.11035 4.13025 8.11035 5.26792 7.42487 5.95059L6.66599 6.7343C5.98051 7.44221 4.87888 7.44221 4.21784 6.7343L2.99377 5.47018C2.89592 6.55723 3.28749 7.64447 4.04638 8.42823C4.78087 9.18675 5.83349 9.59131 6.88628 9.51528C7.69416 9.46467 8.5021 9.76818 9.06513 10.3496L14.0011 15.4657C14.0255 15.4909 14.0255 15.5163 14.0501 15.5163L14.148 15.6174C14.1724 15.6426 14.197 15.668 14.2214 15.7184C14.662 16.2999 14.8825 17.0584 14.7845 17.8421C14.662 18.9798 15.0538 20.1174 15.8371 20.9266C16.6694 21.7861 17.8446 22.1654 18.9951 21.9884L17.6486 20.5978C16.9631 19.8899 16.9631 18.7523 17.6486 18.0696L18.4074 17.2859C18.7258 16.9572 19.1663 16.7549 19.6315 16.7549C20.0967 16.7549 20.5373 16.9319 20.8556 17.2859L22.0797 18.55C22.1779 17.4377 21.7861 16.3507 21.0272 15.567Z" fill="#FF8E01" stroke="#FF8E01"/>
</svg>
