<svg width="24" height="24" viewBox="0 0 24 24" fill="none" xmlns="http://www.w3.org/2000/svg">
<path d="M20.34 4H20.07H3.93H3.66C2.92465 4.08386 2.24626 4.43659 1.75524 4.99037C1.26422 5.54416 0.995234 6.2599 1 7V17C1 17.7956 1.31607 18.5587 1.87868 19.1213C2.44129 19.6839 3.20435 20 4 20H20C20.7957 20 21.5587 19.6839 22.1213 19.1213C22.6839 18.5587 23 17.7956 23 17V7C23.0048 6.2599 22.7358 5.54416 22.2448 4.99037C21.7537 4.43659 21.0754 4.08386 20.34 4ZM19.88 6L13 12.88C12.8126 13.0663 12.5592 13.1708 12.295 13.1708C12.0308 13.1708 11.7774 13.0663 11.59 12.88L4.71 6H19.88ZM21 17C21 17.2652 20.8946 17.5196 20.7071 17.7071C20.5196 17.8946 20.2652 18 20 18H4C3.73478 18 3.48043 17.8946 3.29289 17.7071C3.10536 17.5196 3 17.2652 3 17V7.41L9.88 14.29C10.4425 14.8518 11.205 15.1674 12 15.1674C12.795 15.1674 13.5575 14.8518 14.12 14.29L21 7.41V17Z" fill="#FF8E01"/>
</svg>
