<svg width="46" height="50" viewBox="0 0 46 50" fill="none" xmlns="http://www.w3.org/2000/svg">
<g opacity="0.5">
<path d="M12.5386 18.717H8.8506C8.09368 18.717 7.47976 19.3309 7.47976 20.0878V29.8819C7.47976 30.6393 8.09371 31.2532 8.8506 31.2532C9.608 31.2532 10.2219 30.6393 10.2219 29.8819V26.3641H12.5391H12.5386C13.5533 26.3594 14.5249 25.9525 15.2407 25.2333C15.9565 24.5137 16.3581 23.5402 16.3581 22.5255C16.3662 21.5109 15.966 20.5359 15.2478 19.8197C14.5296 19.1034 13.5532 18.7061 12.5386 18.7171L12.5386 18.717ZM12.5386 23.6143H10.2219V21.4593H12.5391L12.5386 21.4588C12.8265 21.4521 13.1048 21.5635 13.3085 21.7672C13.5117 21.9704 13.6231 22.2487 13.6164 22.5366C13.6183 22.8239 13.5059 23.0998 13.3037 23.304C13.1014 23.5077 12.826 23.6224 12.5386 23.6224L12.5386 23.6143ZM23.3526 18.7007H19.6512C18.8943 18.7007 18.2804 19.3142 18.2804 20.0715V29.8957C18.2804 30.2596 18.4248 30.6082 18.682 30.8654C18.9393 31.1222 19.2879 31.2666 19.6513 31.2666H23.3531C24.3711 31.2666 25.3475 30.8621 26.0671 30.1425C26.7872 29.4224 27.1918 28.446 27.1918 27.4279V22.5254C27.1879 21.5098 26.782 20.5368 26.0624 19.8199C25.3432 19.1027 24.3687 18.7006 23.3531 18.7006L23.3526 18.7007ZM24.4495 27.4395V27.439C24.4495 27.7297 24.3343 28.009 24.1287 28.2146C23.9226 28.4202 23.6438 28.5359 23.3531 28.5359H21.0226L21.0221 21.4425H23.3531C23.6438 21.4425 23.9226 21.5582 24.1287 21.7638C24.3343 21.9694 24.4495 22.2482 24.4495 22.5394L24.4495 27.4395ZM38.0576 20.072V20.0715C38.0576 20.4349 37.9132 20.7835 37.6564 21.0408C37.3991 21.298 37.0506 21.4424 36.6867 21.4424H31.8912V23.6224H35.0691C35.826 23.6224 36.4399 24.2358 36.4399 24.9932C36.4399 25.7506 35.826 26.3641 35.0691 26.3641H31.8912V29.9039C31.8912 30.6612 31.2773 31.2752 30.5199 31.2752C29.763 31.2752 29.1491 30.6612 29.1491 29.9039V20.0716C29.1491 19.3142 29.763 18.7007 30.5199 18.7007H36.6757C37.0396 18.7007 37.3881 18.8451 37.6454 19.1019C37.9021 19.3591 38.0465 19.7077 38.0465 20.0716L38.0576 20.072ZM38.8637 0.000819962L6.60807 0.000341806C4.85323 0.000819931 3.17061 0.6994 1.93124 1.94161C0.691859 3.18343 -0.00292851 4.8674 9.27863e-06 6.62223V43.3642C9.27863e-06 45.1195 0.69525 46.8031 1.93369 48.0467C3.17208 49.2904 4.85286 49.9928 6.60819 50H31.2587C31.7172 49.9952 32.1456 49.771 32.41 49.3966L45.1331 36.6735V36.674C45.2316 36.5721 45.3062 36.4507 45.3526 36.3173C45.4281 36.1542 45.4654 35.9759 45.4621 35.7966V6.62189C45.4649 4.86706 44.7702 3.18297 43.5308 1.94126C42.2915 0.69907 40.6089 0.000489631 38.854 0L38.8637 0.000819962ZM29.8979 41.0209V47.2451L6.60733 47.2446C5.58121 47.2393 4.59862 46.8286 3.87421 46.1018C3.14981 45.3745 2.74242 44.3909 2.74099 43.3644V6.62249C2.73955 5.59637 3.14646 4.61231 3.87183 3.88692C4.59719 3.16156 5.58125 2.75465 6.60739 2.75608H38.852C39.8782 2.75465 40.8622 3.16156 41.5876 3.88692C42.313 4.61229 42.7199 5.59635 42.7184 6.62249V34.4262L36.5215 34.4257C34.7672 34.4209 33.0826 35.1128 31.8385 36.3493C30.5943 37.5859 29.8919 39.2661 29.8862 41.0204L29.8979 41.0209Z" fill="#222222"/>
</g>
</svg>
