<svg width="32" height="32" viewBox="0 0 32 32" fill="none" xmlns="http://www.w3.org/2000/svg">
<path d="M24 7H9C8.44772 7 8 7.44772 8 8V11.5664C8 11.8864 8.15314 12.1871 8.41196 12.3752L13.4318 16.0248C13.6906 16.2129 13.8438 16.5136 13.8438 16.8336V23.2123C13.8438 23.9942 14.7008 24.4736 15.3671 24.0644L18.414 22.1932C18.7101 22.0113 18.8906 21.6886 18.8906 21.341V16.8469C18.8906 16.5195 19.0509 16.2128 19.3197 16.0259L24.5709 12.3741C24.8397 12.1872 25 11.8805 25 11.5531V8C25 7.44772 24.5523 7 24 7Z" stroke="#222222" stroke-width="1.5" stroke-linejoin="bevel"/>
</svg>
