<svg width="24" height="24" viewBox="0 0 24 24" fill="none" xmlns="http://www.w3.org/2000/svg">
<path d="M4.50824 20.07C5.19226 20.8165 6.14342 21.2627 7.15473 21.3114C8.16604 21.36 9.15567 21.0074 9.90824 20.33L10.4882 19.75C11.1388 19.0415 11.4956 18.1121 11.4864 17.1502C11.4771 16.1883 11.1024 15.2659 10.4382 14.57C10.9855 13.7562 11.6046 12.9932 12.2882 12.29C12.988 11.6047 13.744 10.9791 14.5482 10.42C15.2426 11.0927 16.1677 11.4746 17.1343 11.4876C18.101 11.5006 19.0361 11.1438 19.7482 10.49L20.3282 9.91004C21.0056 9.15747 21.3582 8.16785 21.3096 7.15653C21.2609 6.14522 20.8147 5.19406 20.0682 4.51004L19.0682 3.51004C18.6546 3.10422 18.1323 2.82688 17.5644 2.71153C16.9965 2.59618 16.4074 2.64776 15.8682 2.86004C12.9553 4.07718 10.3013 5.83864 8.04824 8.05004C5.84441 10.3145 4.09307 12.9789 2.88824 15.9C2.67596 16.4392 2.62438 17.0284 2.73973 17.5962C2.85508 18.1641 3.13242 18.6864 3.53824 19.1L4.50824 20.07ZM4.73824 16.66C4.88824 16.3 5.10824 15.79 5.40824 15.18C5.50824 14.98 5.62824 14.77 5.74824 14.54C6.7367 12.6787 7.98599 10.9681 9.45824 9.46004C10.2894 8.64502 11.1857 7.89921 12.1382 7.23004C12.6982 6.83004 13.2582 6.48004 13.7782 6.17004C14.2982 5.86004 14.7782 5.63004 15.1782 5.41004C15.7882 5.11004 16.2982 4.89004 16.6582 4.74004C16.8272 4.6736 17.012 4.65808 17.1897 4.6954C17.3674 4.73272 17.5303 4.82124 17.6582 4.95004L18.6582 5.95004C19.029 6.25982 19.263 6.70298 19.3097 7.18382C19.3565 7.66467 19.2123 8.14462 18.9082 8.52004L18.3282 9.10004C17.9516 9.40295 17.4708 9.54548 16.9899 9.49683C16.509 9.44817 16.0666 9.21225 15.7582 8.84004L14.8082 7.84004C14.3182 8.13004 13.8082 8.46004 13.3082 8.84004C12.4407 9.43361 11.6276 10.1029 10.8782 10.84C9.72251 12.0491 8.71537 13.392 7.87824 14.84L8.79824 15.76C9.17045 16.0684 9.40637 16.5108 9.45502 16.9917C9.50368 17.4726 9.36115 17.9534 9.05824 18.33L8.47824 18.91C8.10281 19.2141 7.62286 19.3583 7.14202 19.3115C6.66118 19.2648 6.21802 19.0308 5.90824 18.66L4.90824 17.66C4.78614 17.5277 4.70508 17.3628 4.6749 17.1853C4.64472 17.0077 4.66673 16.8253 4.73824 16.66Z" fill="#FF8E01"/>
</svg>
