<svg width="24" height="24" viewBox="0 0 24 24" fill="none" xmlns="http://www.w3.org/2000/svg">
<path d="M20.3401 4H20.0701H3.93006H3.66006C2.92471 4.08386 2.24632 4.43659 1.7553 4.99037C1.26428 5.54416 0.995295 6.2599 1.00006 7V17C1.00006 17.7956 1.31613 18.5587 1.87874 19.1213C2.44135 19.6839 3.20441 20 4.00006 20H20.0001C20.7957 20 21.5588 19.6839 22.1214 19.1213C22.684 18.5587 23.0001 17.7956 23.0001 17V7C23.0048 6.2599 22.7358 5.54416 22.2448 4.99037C21.7538 4.43659 21.0754 4.08386 20.3401 4ZM19.8801 6L13.0001 12.88C12.8127 13.0663 12.5592 13.1708 12.2951 13.1708C12.0309 13.1708 11.7774 13.0663 11.5901 12.88L4.71006 6H19.8801ZM21.0001 17C21.0001 17.2652 20.8947 17.5196 20.7072 17.7071C20.5196 17.8946 20.2653 18 20.0001 18H4.00006C3.73485 18 3.48049 17.8946 3.29296 17.7071C3.10542 17.5196 3.00006 17.2652 3.00006 17V7.41L9.88006 14.29C10.4426 14.8518 11.2051 15.1674 12.0001 15.1674C12.7951 15.1674 13.5576 14.8518 14.1201 14.29L21.0001 7.41V17Z" fill="#FF8E01"/>
</svg>
