<svg width="24" height="24" viewBox="0 0 24 24" fill="none" xmlns="http://www.w3.org/2000/svg">
<path d="M7.20225 17C8.81225 19.56 10.5423 21.8 11.0623 22.46C11.1735 22.6033 11.316 22.7193 11.4789 22.799C11.6419 22.8788 11.8209 22.9203 12.0023 22.9203C12.1837 22.9203 12.3627 22.8788 12.5256 22.799C12.6885 22.7193 12.831 22.6033 12.9423 22.46C13.4623 21.8 15.1923 19.56 16.8023 17C17.6243 15.7209 18.3529 14.3841 18.9823 13C19.5659 11.8376 19.9061 10.5684 19.9823 9.27C20.017 7.11276 19.1939 5.02996 17.6939 3.47926C16.1938 1.92856 14.1395 1.03683 11.9823 1C10.9107 1.02077 9.8537 1.25297 8.87206 1.68326C7.89043 2.11355 7.00343 2.73347 6.26199 3.50743C5.52054 4.2814 4.93925 5.19417 4.55146 6.19336C4.16367 7.19255 3.97703 8.25849 4.00225 9.33C4.07838 10.6284 4.41866 11.8976 5.00225 13.06C5.64066 14.4241 6.37588 15.7408 7.20225 17ZM12.0023 3C13.6291 3.03673 15.1747 3.71772 16.2998 4.89336C17.4248 6.06901 18.0371 7.64316 18.0023 9.27C17.9156 10.2857 17.6302 11.2744 17.1623 12.18C16.5719 13.5011 15.8868 14.7778 15.1123 16C14.0023 17.76 12.7623 19.42 12.0023 20.43C11.2423 19.43 10.0023 17.76 8.89225 15.95C8.1223 14.7632 7.43726 13.5235 6.84225 12.24C6.37432 11.3344 6.08891 10.3457 6.00225 9.33C5.96739 7.70316 6.57972 6.12901 7.70475 4.95336C8.82977 3.77772 10.3755 3.09673 12.0023 3.06V3Z" fill="#FF8E01"/>
<path d="M12 11.0605C13.1046 11.0605 14 10.1651 14 9.06055C14 7.95598 13.1046 7.06055 12 7.06055C10.8954 7.06055 10 7.95598 10 9.06055C10 10.1651 10.8954 11.0605 12 11.0605Z" fill="#FF8E01"/>
</svg>
