<svg width="24" height="24" viewBox="0 -6 24 24" fill="none" xmlns="http://www.w3.org/2000/svg">
<path d="M1.21875 1.25C1.21875 1.25 2.09418 3.29142 4.57031 5.14077M12.2188 7.75V11.75M12.2188 7.75C10.7007 7.75 9.374 7.49317 8.21875 7.09816M12.2188 7.75C13.5673 7.75 14.7188 7.75 16.2188 7.25M22.7188 1.25C22.7188 1.25 21.2188 3.82321 19.5563 5.14077M4.57031 5.14077L2.21875 8.25M4.57031 5.14077C5.53125 5.85848 6.73327 6.59023 8.21875 7.09816M8.21875 7.09816L7.21875 10.25M16.2188 7.25L17.2188 10.25M16.2188 7.25C17.3883 6.66523 18.5295 5.9545 19.5563 5.14077M19.5563 5.14077L22.1655 7.75" stroke="black" stroke-linecap="round"/>
</svg>
