<svg width="32" height="33" viewBox="0 0 32 33" fill="none" xmlns="http://www.w3.org/2000/svg">
<path d="M15.5498 12.3184C13.5273 12.5207 11.9094 14.1387 11.7071 16.1611C11.5723 17.4645 12.0217 18.7229 12.9431 19.6443C13.752 20.4533 14.8532 20.9027 15.9992 20.9027C16.1341 20.9027 16.2914 20.9027 16.4262 20.8802C18.4487 20.678 20.0667 19.06 20.2689 17.0375C20.4037 15.7342 19.9543 14.4757 19.0329 13.5544C18.1341 12.633 16.8532 12.1836 15.5498 12.3184ZM19.3925 16.9476C19.2352 18.5432 17.9543 19.824 16.3363 20.0038C15.3026 20.1162 14.2914 19.7566 13.5723 19.0151C12.8532 18.296 12.4936 17.2847 12.5835 16.251C12.7408 14.6555 14.0217 13.3746 15.6397 13.1948C15.7521 13.1724 15.8644 13.1724 15.9768 13.1724C16.8756 13.1724 17.7521 13.5319 18.4037 14.1611C19.1453 14.9252 19.5049 15.9364 19.3925 16.9476Z" fill="#FF8E01" stroke="#FF8E01" stroke-width="0.5"/>
<path d="M25.1236 14.7697H24.4719C24.1798 14.7697 23.9326 14.5899 23.8652 14.3202C23.6854 13.7135 23.4382 13.1067 23.1011 12.5449C22.9663 12.2978 22.9888 11.9831 23.2135 11.7584L23.7079 11.264C24.0449 10.927 24.0449 10.3652 23.7079 10.0281L22.4944 8.81461C22.1573 8.47753 21.5955 8.47753 21.2584 8.81461L20.7416 9.33146C20.5393 9.53371 20.2247 9.57865 19.9775 9.44382C19.4382 9.12921 18.8315 8.90449 18.2472 8.72472C17.9775 8.6573 17.7753 8.38764 17.7753 8.09551V7.3764C17.7303 6.90449 17.3483 6.5 16.8539 6.5H15.1461C14.6517 6.5 14.2697 6.90449 14.2697 7.3764V8.11798C14.2697 8.41011 14.0674 8.6573 13.7978 8.74719C13.191 8.90449 12.6067 9.15169 12.0674 9.46629C11.8202 9.60112 11.5056 9.55618 11.3034 9.35393L10.7865 8.83708C10.4494 8.5 9.88764 8.5 9.55056 8.83708L8.33708 10.0506C8 10.3876 8 10.9494 8.33708 11.2865L8.83146 11.7809C9.03371 11.9831 9.07865 12.2978 8.94382 12.5674C8.62921 13.1292 8.35955 13.7135 8.17978 14.3427C8.11236 14.6124 7.8427 14.7921 7.57303 14.7921H6.8764C6.38202 14.7921 6 15.1966 6 15.6685V17.3764C6 17.8708 6.40449 18.2528 6.8764 18.2528H7.48315C7.77528 18.2528 8.02247 18.4551 8.11236 18.7472C8.29213 19.3764 8.53933 19.9831 8.85393 20.5674C8.98876 20.8146 8.94382 21.1292 8.74157 21.3315L8.33708 21.736C8 22.073 8 22.6348 8.33708 22.9719L9.55056 24.1854C9.88764 24.5225 10.4494 24.5225 10.7865 24.1854L11.1685 23.8034C11.3708 23.6011 11.7079 23.5562 11.9551 23.7135C12.5393 24.0506 13.1461 24.2978 13.7978 24.4775C14.0899 24.5674 14.2697 24.8146 14.2697 25.1067V25.6236C14.2697 26.118 14.6742 26.5 15.1461 26.5H16.8539C17.3483 26.5 17.7303 26.0955 17.7303 25.6236V25.1067C17.7303 24.8146 17.9326 24.5674 18.2022 24.4775C18.8315 24.2978 19.4607 24.0281 20.0449 23.7135C20.3146 23.5562 20.6292 23.6011 20.8315 23.8034L21.2135 24.1854C21.5506 24.5225 22.1124 24.5225 22.4494 24.1854L23.6629 22.9719C24 22.6348 24 22.073 23.6629 21.736L23.2584 21.3315C23.0562 21.1292 23.0112 20.8146 23.1461 20.5674C23.4607 19.9831 23.7079 19.3764 23.8876 18.7472C23.9551 18.4551 24.2247 18.2528 24.5169 18.2528H25.1236C25.618 18.2528 26 17.8483 26 17.3764V15.6685C26 15.1517 25.5955 14.7697 25.1236 14.7697ZM25.1011 17.3315H24.5169C23.8202 17.3315 23.2135 17.8034 23.0112 18.5C22.8539 19.0618 22.6292 19.6011 22.3596 20.118C22.0225 20.7022 22.1348 21.4663 22.6292 21.9607L23.0112 22.3427L21.8427 23.5337L21.4831 23.1742C20.9888 22.6798 20.2247 22.5899 19.618 22.927C19.1011 23.2191 18.5618 23.4438 17.9775 23.6011C17.3034 23.7809 16.8315 24.4101 16.8315 25.0843V25.6011H15.1461V25.1067C15.1461 24.4101 14.6742 23.8034 14 23.6236C13.4382 23.4663 12.8764 23.2416 12.3596 22.9494C11.7528 22.5899 10.9663 22.7022 10.4944 23.1966L10.1573 23.5337L8.96629 22.3427L9.34831 21.9607C9.8427 21.4663 9.93258 20.7247 9.61798 20.118C9.32584 19.6011 9.1236 19.0618 8.96629 18.5C8.78652 17.8258 8.1573 17.3315 7.46067 17.3315H6.89888V15.6461H7.52809C8.20225 15.6461 8.80899 15.1966 9.01124 14.5449C9.16854 14.0056 9.39326 13.4663 9.68539 12.9719C10.0225 12.3652 9.93258 11.6011 9.4382 11.1067L8.96629 10.6348L10.1573 9.44382L10.6517 9.9382C11.1236 10.4326 11.8876 10.5225 12.4944 10.2079C12.9888 9.9382 13.5056 9.73596 14.0449 9.57865C14.6966 9.39888 15.1685 8.79214 15.1685 8.09551V7.39888H16.8539V8.11798C16.8539 8.81461 17.3258 9.42135 17.9775 9.60112C18.5169 9.75843 19.0337 9.96067 19.5281 10.2303C20.1348 10.5674 20.8764 10.4551 21.3708 9.96067L21.8652 9.46629L23.0562 10.6573L22.5843 11.1292C22.0899 11.6236 22 12.3876 22.3371 12.9944C22.6292 13.4888 22.8539 14.0281 23.0112 14.5674C23.191 15.2191 23.8202 15.6685 24.4944 15.6685H25.1236V17.3315H25.1011Z" fill="#FF8E01" stroke="#FF8E01" stroke-width="0.5"/>
</svg>
