<svg width="32" height="33" viewBox="0 0 32 33" fill="none" xmlns="http://www.w3.org/2000/svg">
<path d="M15.6923 24.5C8.29334 24.5 4.24337 17.1091 4.0876 16.8248C3.9708 16.6217 3.9708 16.4186 4.0876 16.2158C4.24325 15.8909 8.29334 8.5 15.6923 8.5C23.0913 8.5 27.1412 15.8909 27.297 16.1752C27.4138 16.3783 27.4138 16.5814 27.297 16.7842C27.1414 17.1091 23.0913 24.5 15.6923 24.5ZM5.2948 16.4999C6.11272 17.8401 9.81214 23.2817 15.6923 23.2817C21.5725 23.2817 25.272 17.8807 26.0898 16.4999C25.2722 15.1598 21.5725 9.71817 15.6923 9.71817C9.77306 9.71817 6.11259 15.1598 5.2948 16.4999ZM15.6923 21.373C13.1221 21.373 11.0193 19.1802 11.0193 16.4999C11.0193 13.8196 13.1221 11.6269 15.6923 11.6269C18.2625 11.6269 20.3653 13.8196 20.3653 16.4999C20.3653 19.1802 18.2625 21.373 15.6923 21.373ZM15.6923 12.845C13.7452 12.845 12.1877 14.5101 12.1877 16.4997C12.1877 18.5302 13.7844 20.1544 15.6923 20.1544C17.6394 20.1544 19.1969 18.4894 19.1969 16.4997C19.1969 14.4693 17.6394 12.845 15.6923 12.845Z" fill="#FF8E01"/>
</svg>
