<svg width="25" height="24" viewBox="0 0 25 24" fill="none" xmlns="http://www.w3.org/2000/svg">
<g clip-path="url(#clip0_1_340)">
<path d="M9.98809 20.5697V14.4096H15.0063V20.5697C15.0063 21.2473 15.5709 21.8017 16.2609 21.8017H20.0246C20.7146 21.8017 21.2791 21.2473 21.2791 20.5697V11.9456H23.4119C23.989 11.9456 24.265 11.2433 23.8259 10.8737L13.3378 1.59663C12.861 1.17775 12.1334 1.17775 11.6567 1.59663L1.16853 10.8737C0.741977 11.2433 1.00543 11.9456 1.58253 11.9456H3.71529V20.5697C3.71529 21.2473 4.27984 21.8017 4.96985 21.8017H8.73353C9.42354 21.8017 9.98809 21.2473 9.98809 20.5697Z" fill="#FF8E01"/>
</g>
<defs>
<clipPath id="clip0_1_340">
<rect width="23.0841" height="23.0841" fill="white" transform="translate(0.957947)"/>
</clipPath>
</defs>
</svg>
