<svg width="49" height="54" viewBox="0 0 49 54" fill="none" xmlns="http://www.w3.org/2000/svg">
<path d="M49 24.5C49 38.031 30.5 53.5 24.5 53.5C18.5 53.5 0 38.031 0 24.5C0 10.969 10.969 0 24.5 0C38.031 0 49 10.969 49 24.5Z" fill="#FF8E01"/>
<path fill-rule="evenodd" clip-rule="evenodd" d="M27.7094 10.0001C27.7094 10.0001 26.1314 12.7623 27.4985 15.5884C28.8666 18.4145 30.0659 20.6415 29.7916 23.0176C29.7916 23.0176 30.486 19.1637 34 18.1567C34 18.1567 32.6955 20.6615 33.4105 24.1951C34.1255 27.7278 32.5055 34.3228 25.8559 36.0361C25.8559 36.0361 31.748 32.8458 27.5183 27.6636C27.5183 27.6636 27.4133 30.2123 25.2351 30.9717C25.2351 30.9717 28.6647 25.0299 23.6149 19.5057C23.6149 19.5057 24.7721 23.3386 20.9003 26.615C17.8987 29.1548 18.4794 34.3511 23.7297 36.2991C28.9801 38.2471 32.2838 33.2309 32.2838 33.6692C32.2838 34.1075 29.1622 39.689 23.7297 38.929C21.3244 38.5925 19.3125 37.2672 18.3543 36.6147C14.4258 33.9393 11.9725 28.0627 16.2497 18.971C16.2497 18.971 16.5026 21.5617 18.3543 22.5684C18.3543 22.5684 18.0806 11.4559 27.7082 10L27.7094 10.0001Z" fill="white"/>
</svg>
