<svg width="24" height="24" viewBox="-2.5 -2.5 24 24" fill="none" xmlns="http://www.w3.org/2000/svg">
<path d="M17.5006 9.62082C17.5006 7.86392 16.9477 6.15157 15.9203 4.72642C14.8928 3.30127 13.4429 2.2356 11.7761 1.68043C10.1092 1.12525 8.30987 1.10872 6.63307 1.63318C4.95628 2.15765 3.48705 3.1965 2.43359 4.60253" stroke="#17AF6F" stroke-width="1.5"/>
<path d="M2.17871 0.745117L2.17871 4.80814H6.49567" stroke="#17AF6F" stroke-width="1.5" stroke-linejoin="round"/>
<path d="M0.907801 9.38022C0.907801 11.1371 1.4607 12.8495 2.48815 14.2746C3.51561 15.6998 4.9655 16.7654 6.63238 17.3206C8.29926 17.8758 10.0986 17.8923 11.7754 17.3679C13.4522 16.8434 14.9214 15.8045 15.9749 14.3985" stroke="#17AF6F" stroke-width="1.5"/>
<path d="M16.2288 18.2549L16.2288 14.1919H11.9118" stroke="#17AF6F" stroke-width="1.5" stroke-linejoin="round"/>
</svg>
