<svg width="24" height="24" viewBox="-1 -5 24 24" fill="none" xmlns="http://www.w3.org/2000/svg">
<path d="M11.1095 0.5C6.28881 0.5 1.94142 3.18392 0.0351885 7.33905C-0.0117295 7.44127 -0.0117295 7.55872 0.0351885 7.66095C1.94126 11.8162 6.28841 14.5 11.1095 14.5C15.9305 14.5 20.2775 11.8151 22.1838 7.66095C22.2307 7.55873 22.2307 7.44128 22.1838 7.33905C20.2777 3.18376 15.9305 0.5 11.1095 0.5ZM11.1095 13.7239C6.65232 13.7239 2.63145 11.2879 0.813113 7.49654C2.63141 3.71128 6.65232 1.27275 11.1095 1.27275C15.5666 1.27275 19.5875 3.70874 21.4058 7.50012C19.5875 11.289 15.5666 13.7275 11.1095 13.7275V13.7239Z" fill="black"/>
<path d="M11.1065 3.74564C10.1107 3.74564 9.15554 4.14134 8.45147 4.84556C7.74725 5.54963 7.35156 6.50477 7.35156 7.5006C7.35156 8.49643 7.74725 9.45158 8.45147 10.1556C9.15554 10.8599 10.1107 11.2556 11.1065 11.2556C12.1023 11.2556 13.0575 10.8599 13.7616 10.1556C14.4658 9.45158 14.8615 8.49643 14.8615 7.5006C14.8602 6.50509 14.4642 5.55074 13.7603 4.84679C13.0564 4.14288 12.102 3.74688 11.1065 3.74561L11.1065 3.74564ZM11.1065 10.4821C10.3154 10.4821 9.55683 10.1678 8.99757 9.60851C8.43831 9.04909 8.12416 8.29046 8.12416 7.49957C8.12431 6.70848 8.4386 5.94988 8.99805 5.39062C9.5575 4.83136 10.3161 4.51737 11.1072 4.51752C11.8981 4.51768 12.6567 4.83196 13.2158 5.39158C13.7751 5.951 14.0891 6.70963 14.0889 7.50068C14.0881 8.29145 13.7737 9.04957 13.2146 9.60871C12.6555 10.1679 11.8973 10.4823 11.1066 10.483L11.1065 10.4821Z" fill="black"/>
</svg>
