<svg width="24" height="24" viewBox="-1 0 24 24" fill="none" xmlns="http://www.w3.org/2000/svg">
<path fill-rule="evenodd" clip-rule="evenodd" d="M13.2921 0H8.70788C3.90638 0 0 3.8945 0 8.68161V12.7996C0 16.3646 2.19679 19.5685 5.5 20.8733V23.543C5.5 23.7239 5.60679 23.8876 5.77271 23.9607C5.83229 23.9872 5.89554 24 5.95833 24C6.06971 24 6.18017 23.9593 6.26587 23.8816L8.92375 21.4812H13.2921C18.0936 21.4812 22 17.5867 22 12.7996V8.68161C22 3.8945 18.0936 0 13.2921 0ZM16.1121 14.6024L13.2952 12.7779C12.9872 12.5782 12.6206 12.5105 12.2617 12.5846C11.9024 12.66 11.5934 12.8716 11.3931 13.1801L11.2607 13.383C10.0415 12.9813 8.69723 12.468 7.8924 10.1449L8.22561 9.85601C8.79761 9.36012 8.85765 8.49264 8.36036 7.92133L6.15669 5.3934C5.99077 5.20282 5.70111 5.18316 5.50998 5.34816L4.12627 6.54745C2.91261 7.59957 3.47956 9.15582 3.66611 9.66725C3.67436 9.6901 3.68444 9.71204 3.69636 9.73352C3.74448 9.81945 4.89352 11.8643 6.74931 13.7491C8.61244 15.6418 11.9761 17.3895 12.0793 17.4403C12.4634 17.6889 12.8956 17.8082 13.3232 17.8082C14.0739 17.8082 14.81 17.4412 15.2491 16.7684L16.2474 15.2355C16.3849 15.0229 16.3244 14.74 16.1121 14.6024ZM10.1291 8.73236C10.1983 8.48921 10.4518 8.34799 10.6956 8.41792C11.682 8.69763 12.468 9.48329 12.7462 10.4678C12.815 10.7109 12.6729 10.9632 12.4295 11.0318C12.3878 11.0432 12.3461 11.0487 12.3048 11.0487C12.1045 11.0487 11.9207 10.9166 11.8639 10.7155C11.6714 10.034 11.1274 9.49061 10.4445 9.29682C10.2011 9.2278 10.0599 8.97506 10.1291 8.73236ZM15.0797 10.46C15.121 10.46 15.1627 10.4545 15.2044 10.4431C15.4482 10.3746 15.5898 10.1218 15.5211 9.87911C14.9803 7.96728 13.4545 6.44257 11.5386 5.89869C11.2953 5.82876 11.0418 5.9709 10.9726 6.21359C10.9034 6.45629 11.0445 6.70903 11.2879 6.77805C12.8999 7.23509 14.1837 8.51894 14.6388 10.1273C14.6961 10.3284 14.8794 10.46 15.0797 10.46ZM10.9726 3.69218C11.0418 3.44857 11.2953 3.30734 11.5391 3.37727C14.5742 4.23881 16.9914 6.65476 17.848 9.68361C17.9168 9.9263 17.7747 10.179 17.5313 10.2476C17.4896 10.259 17.4479 10.2645 17.4067 10.2645C17.2064 10.2645 17.0226 10.1324 16.9658 9.93133C16.1948 7.20596 14.0191 5.03133 11.2879 4.25663C11.0445 4.18762 10.9034 3.93487 10.9726 3.69218Z" fill="white"/>
</svg>
