<svg width="24" height="24" viewBox="0 0 24 24" fill="none" xmlns="http://www.w3.org/2000/svg">
<path fill-rule="evenodd" clip-rule="evenodd" d="M0 12C0 5.38292 5.38292 0 12 0C18.6171 0 24 5.38292 24 12C24 18.6171 18.6171 24 12 24C9.8123 24 7.67861 23.4078 5.81538 22.2854L1.05877 23.7485C0.899076 23.7974 0.723692 23.7558 0.602307 23.6391C0.480923 23.5223 0.433384 23.3488 0.477692 23.1863C0.478657 23.1829 0.488877 23.1455 0.506947 23.0794C0.661744 22.513 1.39263 19.8387 1.81708 18.3517C0.62723 16.4488 0 14.2574 0 12ZM16.3067 13.0162C16.6771 13.2551 17.1845 13.5824 17.7803 13.9088C17.8997 13.9741 17.9646 14.1066 17.9417 14.2395C17.6353 16.0551 16.547 16.9704 14.7032 16.9704C14.3906 16.9704 14.0567 16.9443 13.7005 16.8917C10.5663 16.4279 8.10793 13.5723 7.15016 11.1157C6.27764 8.87729 8.11375 7.03042 8.19221 6.953C8.23742 6.90872 8.2949 6.87845 8.35723 6.86603C9.00532 6.73859 9.42931 6.76759 9.61757 6.953C9.80519 7.1381 10.8424 8.96968 10.8424 9.40837C10.8424 9.83401 10.6315 10.208 10.0461 10.8025C10.1304 11.2919 10.7045 12.0103 11.6171 12.7606C12.5109 13.4949 13.4102 13.9992 13.6024 14.0289C13.7687 13.9957 14.3367 13.3799 14.7716 12.736C14.7833 12.7188 14.7968 12.7026 14.812 12.6876C14.9328 12.5672 15.2502 12.4216 15.669 12.6277C15.8189 12.702 16.0233 12.8335 16.3061 13.0158L16.3067 13.0162Z" fill="white"/>
</svg>
