<svg width="76" height="9" viewBox="0 0 76 9" fill="none" xmlns="http://www.w3.org/2000/svg">
<g opacity="0.5">
<g opacity="0.3">
<mask id="path-1-inside-1_1_330" fill="white">
<path fill-rule="evenodd" clip-rule="evenodd" d="M5.09319 3.96201L3.89344 7.15774L1.38081 0.0559793H0L3.31621 8.74953H4.40274L5.90809 4.85584L7.40212 8.74953H8.48865L11.8049 0.0559793H10.4124L7.91142 7.15774L6.71167 3.96201L8.08116 0.0927221H6.89282L5.89677 3.04368L4.91204 0.0927221H3.71285L5.09319 3.96201ZM27.7578 5.09454C27.4858 4.70382 27.1016 4.42178 26.6655 4.29262C27.0248 4.12315 27.3243 3.83344 27.5201 3.4661C27.7173 3.10451 27.8207 2.69208 27.8195 2.27223C27.8188 1.99881 27.7748 1.72755 27.6894 1.47021C27.6062 1.21202 27.4817 0.971658 27.3215 0.760111C27.1621 0.551077 26.9659 0.378355 26.7443 0.251955C26.5106 0.119518 26.2502 0.0521628 25.9864 0.0559793H21.844V8.74953H25.6809C26.0069 8.75175 26.3313 8.70014 26.6429 8.59647C26.9282 8.50381 27.195 8.3543 27.4295 8.15563C27.6514 7.96485 27.8328 7.72476 27.9615 7.4516C28.0967 7.15916 28.1646 6.83572 28.1595 6.50877C28.1735 6.00232 28.0322 5.50509 27.7578 5.09454ZM26.7674 6.75981C26.7097 6.91449 26.6252 7.05581 26.5184 7.17616C26.4119 7.29523 26.285 7.39086 26.1449 7.45777C25.9988 7.52778 25.8406 7.56325 25.6809 7.56183H23.1116V4.90484H25.7601C25.9132 4.90348 26.0644 4.94121 26.2015 5.01497C26.3342 5.0858 26.4517 5.18578 26.5467 5.30853C26.644 5.43654 26.7205 5.58146 26.773 5.73712C26.8298 5.90157 26.8586 6.0758 26.858 6.25136C26.8589 6.42563 26.8282 6.5984 26.7674 6.75981ZM25.5111 1.24377C25.6526 1.24016 25.793 1.2707 25.9223 1.33318C26.0515 1.39565 26.1662 1.48849 26.2581 1.60495C26.4598 1.86234 26.5648 2.19222 26.5524 2.52935C26.5544 2.70506 26.5256 2.87958 26.4675 3.04368C26.4146 3.19271 26.3336 3.32824 26.2298 3.44171C26.1284 3.55149 26.0096 3.64064 25.879 3.7049C25.742 3.77133 25.5933 3.80473 25.4432 3.80278H23.1116V1.24377H25.5111ZM38.6518 8.74953V0.0559793H37.2932L34.6335 5.37038L31.9736 0.0559793H30.6155V8.74953H31.8831V2.4926L34.2826 7.23123H34.9843L37.3725 2.4926V8.74953H38.6518ZM52.4034 8.74953C52.9564 8.75802 53.5059 8.65203 54.0222 8.43724C54.4869 8.24214 54.9075 7.94152 55.2558 7.55566C55.6031 7.16256 55.871 6.69555 56.0424 6.18434C56.2337 5.60926 56.3276 5.00161 56.3198 4.3905C56.3232 3.81829 56.239 3.2494 56.0708 2.7069C55.9139 2.19744 55.6615 1.72849 55.3294 1.32941C54.9884 0.927906 54.5715 0.610526 54.107 0.398833C53.5671 0.159336 52.9874 0.0426297 52.404 0.0559793H49.5507V8.74953H52.4029H52.4034ZM54.8594 5.63944C54.7552 6.0053 54.5839 6.34469 54.3557 6.63733C54.1295 6.92187 53.8472 7.14783 53.5295 7.29854C53.174 7.46368 52.7902 7.54508 52.4034 7.53734H50.8183V1.26817H52.4029C52.7836 1.26097 53.1615 1.34029 53.5121 1.50099C53.8269 1.64868 54.1087 1.8679 54.3383 2.14378C54.5712 2.43014 54.7465 2.76581 54.853 3.12942C54.9733 3.53699 55.0325 3.96277 55.0284 4.3906C55.032 4.81386 54.9748 5.23516 54.8589 5.63944H54.8594ZM60.0543 8.74953V0.0559793H58.7863V8.74953H60.0538H60.0543ZM62.1707 8.74953H63.517L64.3546 6.38639H67.4558L68.3046 8.74953H69.6403L66.4711 0.0559793H65.362L62.1707 8.74953ZM64.5815 5.37007L65.917 1.63552L67.2073 5.37007H64.581H64.5815ZM13.8184 0H19.4326V1.21472H13.8184V0ZM13.8184 3.74539H18.7776V4.96011H13.8184V3.74539ZM13.8184 7.49077H19.4326V8.70549H13.8184V7.49077ZM41.6086 0H47.2228V1.21472H41.6086V0ZM41.6086 3.74539H46.5678V4.96011H41.6086V3.74539ZM41.6086 7.49077H47.2228V8.70549H41.6086V7.49077Z"/>
</mask>
<path fill-rule="evenodd" clip-rule="evenodd" d="M5.09319 3.96201L3.89344 7.15774L1.38081 0.0559793H0L3.31621 8.74953H4.40274L5.90809 4.85584L7.40212 8.74953H8.48865L11.8049 0.0559793H10.4124L7.91142 7.15774L6.71167 3.96201L8.08116 0.0927221H6.89282L5.89677 3.04368L4.91204 0.0927221H3.71285L5.09319 3.96201ZM27.7578 5.09454C27.4858 4.70382 27.1016 4.42178 26.6655 4.29262C27.0248 4.12315 27.3243 3.83344 27.5201 3.4661C27.7173 3.10451 27.8207 2.69208 27.8195 2.27223C27.8188 1.99881 27.7748 1.72755 27.6894 1.47021C27.6062 1.21202 27.4817 0.971658 27.3215 0.760111C27.1621 0.551077 26.9659 0.378355 26.7443 0.251955C26.5106 0.119518 26.2502 0.0521628 25.9864 0.0559793H21.844V8.74953H25.6809C26.0069 8.75175 26.3313 8.70014 26.6429 8.59647C26.9282 8.50381 27.195 8.3543 27.4295 8.15563C27.6514 7.96485 27.8328 7.72476 27.9615 7.4516C28.0967 7.15916 28.1646 6.83572 28.1595 6.50877C28.1735 6.00232 28.0322 5.50509 27.7578 5.09454ZM26.7674 6.75981C26.7097 6.91449 26.6252 7.05581 26.5184 7.17616C26.4119 7.29523 26.285 7.39086 26.1449 7.45777C25.9988 7.52778 25.8406 7.56325 25.6809 7.56183H23.1116V4.90484H25.7601C25.9132 4.90348 26.0644 4.94121 26.2015 5.01497C26.3342 5.0858 26.4517 5.18578 26.5467 5.30853C26.644 5.43654 26.7205 5.58146 26.773 5.73712C26.8298 5.90157 26.8586 6.0758 26.858 6.25136C26.8589 6.42563 26.8282 6.5984 26.7674 6.75981ZM25.5111 1.24377C25.6526 1.24016 25.793 1.2707 25.9223 1.33318C26.0515 1.39565 26.1662 1.48849 26.2581 1.60495C26.4598 1.86234 26.5648 2.19222 26.5524 2.52935C26.5544 2.70506 26.5256 2.87958 26.4675 3.04368C26.4146 3.19271 26.3336 3.32824 26.2298 3.44171C26.1284 3.55149 26.0096 3.64064 25.879 3.7049C25.742 3.77133 25.5933 3.80473 25.4432 3.80278H23.1116V1.24377H25.5111ZM38.6518 8.74953V0.0559793H37.2932L34.6335 5.37038L31.9736 0.0559793H30.6155V8.74953H31.8831V2.4926L34.2826 7.23123H34.9843L37.3725 2.4926V8.74953H38.6518ZM52.4034 8.74953C52.9564 8.75802 53.5059 8.65203 54.0222 8.43724C54.4869 8.24214 54.9075 7.94152 55.2558 7.55566C55.6031 7.16256 55.871 6.69555 56.0424 6.18434C56.2337 5.60926 56.3276 5.00161 56.3198 4.3905C56.3232 3.81829 56.239 3.2494 56.0708 2.7069C55.9139 2.19744 55.6615 1.72849 55.3294 1.32941C54.9884 0.927906 54.5715 0.610526 54.107 0.398833C53.5671 0.159336 52.9874 0.0426297 52.404 0.0559793H49.5507V8.74953H52.4029H52.4034ZM54.8594 5.63944C54.7552 6.0053 54.5839 6.34469 54.3557 6.63733C54.1295 6.92187 53.8472 7.14783 53.5295 7.29854C53.174 7.46368 52.7902 7.54508 52.4034 7.53734H50.8183V1.26817H52.4029C52.7836 1.26097 53.1615 1.34029 53.5121 1.50099C53.8269 1.64868 54.1087 1.8679 54.3383 2.14378C54.5712 2.43014 54.7465 2.76581 54.853 3.12942C54.9733 3.53699 55.0325 3.96277 55.0284 4.3906C55.032 4.81386 54.9748 5.23516 54.8589 5.63944H54.8594ZM60.0543 8.74953V0.0559793H58.7863V8.74953H60.0538H60.0543ZM62.1707 8.74953H63.517L64.3546 6.38639H67.4558L68.3046 8.74953H69.6403L66.4711 0.0559793H65.362L62.1707 8.74953ZM64.5815 5.37007L65.917 1.63552L67.2073 5.37007H64.581H64.5815ZM13.8184 0H19.4326V1.21472H13.8184V0ZM13.8184 3.74539H18.7776V4.96011H13.8184V3.74539ZM13.8184 7.49077H19.4326V8.70549H13.8184V7.49077ZM41.6086 0H47.2228V1.21472H41.6086V0ZM41.6086 3.74539H46.5678V4.96011H41.6086V3.74539ZM41.6086 7.49077H47.2228V8.70549H41.6086V7.49077Z" fill="white" stroke="white" stroke-width="2" mask="url(#path-1-inside-1_1_330)"/>
</g>
<path fill-rule="evenodd" clip-rule="evenodd" d="M5.09319 3.96201L3.89344 7.15774L1.38081 0.0559793H0L3.31621 8.74953H4.40274L5.90809 4.85584L7.40212 8.74953H8.48865L11.8049 0.0559793H10.4124L7.91142 7.15774L6.71167 3.96201L8.08116 0.0927221H6.89282L5.89677 3.04368L4.91204 0.0927221H3.71285L5.09319 3.96201ZM27.7578 5.09454C27.4858 4.70382 27.1016 4.42178 26.6655 4.29262C27.0248 4.12315 27.3243 3.83344 27.5201 3.4661C27.7173 3.10451 27.8207 2.69208 27.8195 2.27223C27.8188 1.99881 27.7748 1.72755 27.6894 1.47021C27.6062 1.21202 27.4817 0.971658 27.3215 0.760111C27.1621 0.551077 26.9659 0.378355 26.7443 0.251955C26.5106 0.119518 26.2502 0.0521628 25.9864 0.0559793H21.844V8.74953H25.6809C26.0069 8.75175 26.3313 8.70014 26.6429 8.59647C26.9282 8.50381 27.195 8.3543 27.4295 8.15563C27.6514 7.96485 27.8328 7.72476 27.9615 7.4516C28.0967 7.15916 28.1646 6.83572 28.1595 6.50877C28.1735 6.00232 28.0322 5.50509 27.7578 5.09454ZM26.7674 6.75981C26.7097 6.91449 26.6252 7.05581 26.5184 7.17616C26.4119 7.29523 26.285 7.39086 26.1449 7.45777C25.9988 7.52778 25.8406 7.56325 25.6809 7.56183H23.1116V4.90484H25.7601C25.9132 4.90348 26.0644 4.94121 26.2015 5.01497C26.3342 5.0858 26.4517 5.18578 26.5467 5.30853C26.644 5.43654 26.7205 5.58146 26.773 5.73712C26.8298 5.90157 26.8586 6.0758 26.858 6.25136C26.8589 6.42563 26.8282 6.5984 26.7674 6.75981ZM25.5111 1.24377C25.6526 1.24016 25.793 1.2707 25.9223 1.33318C26.0515 1.39565 26.1662 1.48849 26.2581 1.60495C26.4598 1.86234 26.5648 2.19222 26.5524 2.52935C26.5544 2.70506 26.5256 2.87958 26.4675 3.04368C26.4146 3.19271 26.3336 3.32824 26.2298 3.44171C26.1284 3.55149 26.0096 3.64064 25.879 3.7049C25.742 3.77133 25.5933 3.80473 25.4432 3.80278H23.1116V1.24377H25.5111ZM38.6518 8.74953V0.0559793H37.2932L34.6335 5.37038L31.9736 0.0559793H30.6155V8.74953H31.8831V2.4926L34.2826 7.23123H34.9843L37.3725 2.4926V8.74953H38.6518ZM52.4034 8.74953C52.9564 8.75802 53.5059 8.65203 54.0222 8.43724C54.4869 8.24214 54.9075 7.94152 55.2558 7.55566C55.6031 7.16256 55.871 6.69555 56.0424 6.18434C56.2337 5.60926 56.3276 5.00161 56.3198 4.3905C56.3232 3.81829 56.239 3.2494 56.0708 2.7069C55.9139 2.19744 55.6615 1.72849 55.3294 1.32941C54.9884 0.927906 54.5715 0.610526 54.107 0.398833C53.5671 0.159336 52.9874 0.0426297 52.404 0.0559793H49.5507V8.74953H52.4029H52.4034ZM54.8594 5.63944C54.7552 6.0053 54.5839 6.34469 54.3557 6.63733C54.1295 6.92187 53.8472 7.14783 53.5295 7.29854C53.174 7.46368 52.7902 7.54508 52.4034 7.53734H50.8183V1.26817H52.4029C52.7836 1.26097 53.1615 1.34029 53.5121 1.50099C53.8269 1.64868 54.1087 1.8679 54.3383 2.14378C54.5712 2.43014 54.7465 2.76581 54.853 3.12942C54.9733 3.53699 55.0325 3.96277 55.0284 4.3906C55.032 4.81386 54.9748 5.23516 54.8589 5.63944H54.8594ZM60.0543 8.74953V0.0559793H58.7863V8.74953H60.0538H60.0543ZM62.1707 8.74953H63.517L64.3546 6.38639H67.4558L68.3046 8.74953H69.6403L66.4711 0.0559793H65.362L62.1707 8.74953ZM64.5815 5.37007L65.917 1.63552L67.2073 5.37007H64.581H64.5815ZM13.8184 0H19.4326V1.21472H13.8184V0ZM13.8184 3.74539H18.7776V4.96011H13.8184V3.74539ZM13.8184 7.49077H19.4326V8.70549H13.8184V7.49077ZM41.6086 0H47.2228V1.21472H41.6086V0ZM41.6086 3.74539H46.5678V4.96011H41.6086V3.74539ZM41.6086 7.49077H47.2228V8.70549H41.6086V7.49077Z" fill="black"/>
<rect x="74" y="7" width="2" height="2" fill="#FF0000"/>
</g>
</svg>
