<svg width="166" height="38" viewBox="0 0 166 38" fill="none" xmlns="http://www.w3.org/2000/svg">
<path fill-rule="evenodd" clip-rule="evenodd" d="M16.2612 7.45239C8.7772 7.45239 2.7102 13.5194 2.7102 21.0034C2.7102 28.4874 8.7772 34.5544 16.2612 34.5544H149.739C157.223 34.5544 163.29 28.4874 163.29 21.0034C163.29 13.5194 157.223 7.45239 149.739 7.45239H87.4041L88.0816 4.74219H149.739C158.72 4.74219 166 12.0226 166 21.0034C166 29.9842 158.72 37.2646 149.739 37.2646H16.2612C7.2804 37.2646 0 29.9842 0 21.0034C0 12.0226 7.2804 4.74219 16.2612 4.74219H68.7714L67.4163 7.45239H16.2612Z" fill="white"/>
<path d="M10.8438 18.0152L11.1671 16.0911H20.2325L19.9091 18.0152H16.5298L15.0207 27.129H12.7139L14.223 18.0152H10.8438ZM19.8929 27.129L21.7254 16.0911H29.163L28.8397 18.0152H23.7357L23.3045 20.6453H28.0258L27.7025 22.5694H22.9812L22.55 25.2049H27.6755L27.3521 27.129H19.8929ZM40.4017 16.0911L38.5693 27.129H36.2625L37.7878 17.9882H33.3252L31.7999 27.129H29.4931L31.3256 16.0911H40.4017ZM40.1929 27.129L40.5109 25.2534L40.8235 25.2265C41.2367 25.1941 41.5888 25.0414 41.8798 24.7684C42.1745 24.4917 42.4332 24.0515 42.6559 23.4479C42.8787 22.8407 43.0907 22.0251 43.2919 21.001L44.2944 16.0911H51.7859L49.9535 27.129H47.6844L49.2043 17.9613H46.1484L45.3346 21.8041C45.0759 23.0401 44.7633 24.0498 44.3968 24.833C44.0303 25.6163 43.5596 26.1948 42.9847 26.5685C42.4134 26.9422 41.684 27.129 40.7965 27.129H40.1929ZM62.9155 21.761C62.7143 22.9395 62.3244 23.9402 61.7459 24.763C61.171 25.5858 60.4686 26.211 59.6386 26.6386C58.8122 27.0661 57.9211 27.2799 56.9653 27.2799C55.9629 27.2799 55.0987 27.0518 54.3729 26.5954C53.6507 26.1391 53.1279 25.4798 52.8046 24.6175C52.4812 23.7515 52.4201 22.7077 52.6213 21.4861C52.8153 20.304 53.2016 19.3015 53.7801 18.4787C54.3586 17.6523 55.0646 17.0235 55.8982 16.5923C56.7318 16.1576 57.6283 15.9402 58.5876 15.9402C59.5829 15.9402 60.4416 16.1701 61.1638 16.6301C61.8896 17.09 62.4124 17.7547 62.7322 18.6242C63.0556 19.4901 63.1167 20.5357 62.9155 21.761ZM60.5925 21.4861C60.7183 20.728 60.7129 20.092 60.5764 19.5782C60.4434 19.0608 60.1991 18.6691 59.8434 18.4032C59.4877 18.1374 59.0385 18.0044 58.496 18.0044C57.9067 18.0044 57.366 18.1517 56.8737 18.4464C56.3851 18.741 55.9719 19.1686 55.6341 19.7291C55.3 20.286 55.0682 20.9633 54.9389 21.761C54.8095 22.5227 54.8131 23.1587 54.9496 23.6689C55.0898 24.1791 55.3395 24.5654 55.6988 24.8277C56.0617 25.0864 56.5126 25.2157 57.0516 25.2157C57.6372 25.2157 58.1726 25.072 58.6577 24.7845C59.1463 24.4935 59.5577 24.0713 59.8919 23.518C60.2261 22.9611 60.4596 22.2838 60.5925 21.4861Z" fill="white"/>
<path d="M103.335 19.9554H101.007C101.014 19.6464 100.974 19.3734 100.888 19.1362C100.802 18.8955 100.673 18.6907 100.5 18.5218C100.331 18.3529 100.125 18.2254 99.8802 18.1391C99.6359 18.0493 99.361 18.0044 99.0556 18.0044C98.4664 18.0044 97.9256 18.1517 97.4334 18.4464C96.9411 18.741 96.5261 19.1686 96.1884 19.7291C95.8506 20.286 95.6171 20.9597 95.4877 21.7502C95.362 22.5119 95.3691 23.1497 95.5093 23.6635C95.6494 24.1773 95.8973 24.5654 96.253 24.8277C96.6123 25.0864 97.0597 25.2157 97.5951 25.2157C97.9256 25.2157 98.24 25.1744 98.5382 25.0917C98.8365 25.0055 99.1077 24.8833 99.3521 24.7253C99.6 24.5636 99.8156 24.3677 99.9988 24.1378C100.186 23.9078 100.331 23.6473 100.435 23.3563H102.78C102.633 23.8629 102.403 24.3516 102.09 24.8223C101.781 25.293 101.398 25.7133 100.942 26.0834C100.486 26.4499 99.9665 26.741 99.3844 26.9565C98.8023 27.1721 98.1646 27.2799 97.4711 27.2799C96.4686 27.2799 95.6081 27.05 94.8895 26.5901C94.1744 26.1301 93.6588 25.4672 93.3426 24.6013C93.0265 23.7354 92.9672 22.6916 93.1648 21.4699C93.3624 20.2878 93.7487 19.2853 94.3236 18.4625C94.902 17.6361 95.6045 17.0091 96.4309 16.5815C97.2609 16.154 98.1484 15.9402 99.0934 15.9402C99.7509 15.9402 100.346 16.03 100.877 16.2097C101.409 16.3893 101.862 16.6516 102.236 16.9965C102.613 17.3379 102.897 17.7565 103.087 18.2523C103.277 18.7482 103.36 19.3159 103.335 19.9554ZM103.828 27.129L105.661 16.0911H113.098L112.775 18.0152H107.671L107.24 20.6453H111.961L111.638 22.5694H106.916L106.485 25.2049H111.611L111.287 27.129H103.828ZM113.121 27.129L114.954 16.0911H119.308C120.142 16.0911 120.827 16.251 121.362 16.5708C121.901 16.887 122.278 17.3271 122.494 17.8912C122.713 18.4517 122.763 19.0985 122.645 19.8315C122.522 20.5681 122.257 21.2166 121.847 21.7771C121.441 22.3341 120.913 22.7688 120.262 23.0814C119.612 23.394 118.861 23.5503 118.01 23.5503H115.234L115.541 21.6801H117.939C118.392 21.6801 118.778 21.6029 119.098 21.4484C119.422 21.2903 119.679 21.0729 119.869 20.7962C120.059 20.516 120.183 20.1944 120.241 19.8315C120.302 19.4614 120.282 19.1398 120.182 18.8667C120.081 18.5937 119.896 18.3817 119.626 18.2308C119.361 18.0763 119.003 17.999 118.554 17.999H116.98L115.455 27.129H113.121ZM122.948 27.129L124.78 16.0911H129.2C130.012 16.0911 130.669 16.2115 131.172 16.4522C131.679 16.6929 132.033 17.0271 132.234 17.4547C132.435 17.8786 132.489 18.3673 132.396 18.9206C132.32 19.3518 132.168 19.7291 131.938 20.0525C131.711 20.3758 131.431 20.6417 131.097 20.8501C130.763 21.0585 130.4 21.2058 130.008 21.2921L129.987 21.3999C130.403 21.4178 130.779 21.5364 131.113 21.7556C131.447 21.9712 131.697 22.2766 131.862 22.6718C132.027 23.067 132.065 23.5359 131.975 24.0785C131.878 24.6642 131.647 25.187 131.28 25.6469C130.914 26.1032 130.425 26.4643 129.814 26.7302C129.207 26.9961 128.49 27.129 127.664 27.129H122.948ZM125.605 25.2211H127.507C128.154 25.2211 128.648 25.0953 128.99 24.8438C129.331 24.5923 129.536 24.2599 129.604 23.8467C129.651 23.5413 129.62 23.2719 129.512 23.0383C129.408 22.8048 129.23 22.6215 128.979 22.4886C128.731 22.3556 128.416 22.2891 128.036 22.2891H126.085L125.605 25.2211ZM126.354 20.71H128.084C128.4 20.71 128.693 20.6543 128.963 20.5429C129.236 20.4279 129.46 20.2662 129.636 20.0578C129.816 19.8459 129.929 19.5961 129.976 19.3087C130.041 18.9063 129.951 18.5847 129.706 18.344C129.466 18.0996 129.088 17.9775 128.575 17.9775H126.807L126.354 20.71ZM134.814 16.0911H137.143L135.989 23.0329H136.086L142.004 16.0911H144.047L142.214 27.129H139.881L141.034 20.1818H140.953L135.003 27.129H132.982L134.814 16.0911ZM155.062 19.9554H152.733C152.741 19.6464 152.701 19.3734 152.615 19.1362C152.529 18.8955 152.399 18.6907 152.227 18.5218C152.058 18.3529 151.851 18.2254 151.607 18.1391C151.363 18.0493 151.088 18.0044 150.782 18.0044C150.193 18.0044 149.652 18.1517 149.16 18.4464C148.668 18.741 148.253 19.1686 147.915 19.7291C147.577 20.286 147.344 20.9597 147.215 21.7502C147.089 22.5119 147.096 23.1497 147.236 23.6635C147.376 24.1773 147.624 24.5654 147.98 24.8277C148.339 25.0864 148.786 25.2157 149.322 25.2157C149.652 25.2157 149.967 25.1744 150.265 25.0917C150.563 25.0055 150.835 24.8833 151.079 24.7253C151.327 24.5636 151.542 24.3677 151.726 24.1378C151.912 23.9078 152.058 23.6473 152.162 23.3563H154.507C154.359 23.8629 154.129 24.3516 153.817 24.8223C153.508 25.293 153.125 25.7133 152.669 26.0834C152.212 26.4499 151.693 26.741 151.111 26.9565C150.529 27.1721 149.891 27.2799 149.198 27.2799C148.195 27.2799 147.335 27.05 146.616 26.5901C145.901 26.1301 145.386 25.4672 145.069 24.6013C144.753 23.7354 144.694 22.6916 144.892 21.4699C145.089 20.2878 145.475 19.2853 146.05 18.4625C146.629 17.6361 147.331 17.0091 148.158 16.5815C148.988 16.154 149.875 15.9402 150.82 15.9402C151.478 15.9402 152.072 16.03 152.604 16.2097C153.136 16.3893 153.589 16.6516 153.962 16.9965C154.34 17.3379 154.623 17.7565 154.814 18.2523C155.004 18.7482 155.087 19.3159 155.062 19.9554Z" fill="white"/>
<path fill-rule="evenodd" clip-rule="evenodd" d="M82.9069 6.44571e-05C82.9069 6.44571e-05 80.929 3.55825 82.6426 7.19872C84.3575 10.8393 85.8608 13.7079 85.517 16.7688C85.517 16.7688 86.3874 11.8043 90.792 10.5072C90.792 10.5072 89.1569 13.7338 90.0532 18.2856C90.9494 22.8363 88.9187 31.3318 80.5837 33.5387C80.5837 33.5387 87.9692 29.4291 82.6674 22.7537C82.6674 22.7537 82.5358 26.0367 79.8056 27.0149C79.8056 27.0149 84.1044 19.361 77.7746 12.2449C77.7746 12.2449 79.2252 17.1824 74.3719 21.4028C70.6096 24.6745 71.3375 31.3682 77.9186 33.8775C84.4997 36.3869 86.0492 36.249 88.4206 36.5878C90.792 36.9265 93.5022 36.9265 99.2614 37.2653C99.2614 37.2653 86.388 37.2653 77.9186 37.2653C74.9036 36.8319 72.3817 35.1247 71.1806 34.2841C66.2564 30.8377 63.1813 23.2677 68.5426 11.5561C68.5426 11.5561 68.8596 14.8933 71.1806 16.1902C71.1806 16.1902 70.8375 1.87544 82.9055 0L82.9069 6.44571e-05Z" fill="#F46700"/>
<path fill-rule="evenodd" clip-rule="evenodd" d="M82.9069 6.44571e-05C82.9069 6.44571e-05 80.929 3.55825 82.6426 7.19872C84.3575 10.8393 85.8608 13.7079 85.517 16.7688C85.517 16.7688 86.3874 11.8043 90.792 10.5072C90.792 10.5072 89.1569 13.7338 90.0532 18.2856C90.9494 22.8363 88.9187 31.3318 80.5837 33.5387C80.5837 33.5387 87.9692 29.4291 82.6674 22.7537C82.6674 22.7537 82.5358 26.0367 79.8056 27.0149C79.8056 27.0149 84.1044 19.361 77.7746 12.2449C77.7746 12.2449 79.2252 17.1824 74.3719 21.4028C70.6096 24.6745 71.3375 31.3682 77.9186 33.8775C84.4997 36.3869 86.0492 36.249 88.4206 36.5878C90.792 36.9265 93.5022 36.9265 99.2614 37.2653C99.2614 37.2653 86.388 37.2653 77.9186 37.2653C74.9036 36.8319 72.3817 35.1247 71.1806 34.2841C66.2564 30.8377 63.1813 23.2677 68.5426 11.5561C68.5426 11.5561 68.8596 14.8933 71.1806 16.1902C71.1806 16.1902 70.8375 1.87544 82.9055 0L82.9069 6.44571e-05Z" fill="#FF8E01"/>
</svg>
