<svg width="166" height="38" viewBox="0 0 166 38" fill="none" xmlns="http://www.w3.org/2000/svg">
<path fill-rule="evenodd" clip-rule="evenodd" d="M16.2612 7.45239C8.7772 7.45239 2.7102 13.5194 2.7102 21.0034C2.7102 28.4874 8.7772 34.5544 16.2612 34.5544H149.739C157.223 34.5544 163.29 28.4874 163.29 21.0034C163.29 13.5194 157.223 7.45239 149.739 7.45239H87.4041L88.0816 4.74219H149.739C158.72 4.74219 166 12.0226 166 21.0034C166 29.9842 158.72 37.2646 149.739 37.2646H16.2612C7.2804 37.2646 0 29.9842 0 21.0034C0 12.0226 7.2804 4.74219 16.2612 4.74219H68.7714L67.4163 7.45239H16.2612Z" fill="#222222"/>
<path d="M10.8426 18.0151L11.1659 16.091H20.2313L19.9079 18.0151H16.5286L15.0195 27.1289H12.7128L14.2218 18.0151H10.8426ZM19.8917 27.1289L21.7242 16.091H29.1618L28.8385 18.0151H23.7345L23.3033 20.6452H28.0246L27.7013 22.5693H22.98L22.5488 25.2048H27.6743L27.3509 27.1289H19.8917ZM40.4005 16.091L38.5681 27.1289H36.2613L37.7866 17.9881H33.324L31.7987 27.1289H29.492L31.3244 16.091H40.4005ZM40.1917 27.1289L40.5097 25.2533L40.8223 25.2264C41.2355 25.194 41.5876 25.0413 41.8786 24.7683C42.1733 24.4916 42.432 24.0514 42.6547 23.4478C42.8775 22.8406 43.0895 22.0249 43.2907 21.0009L44.2932 16.091H51.7847L49.9523 27.1289H47.6832L49.2031 17.9612H46.1472L45.3334 21.804C45.0747 23.04 44.7621 24.0496 44.3956 24.8329C44.0291 25.6162 43.5584 26.1947 42.9835 26.5684C42.4122 26.9421 41.6828 27.1289 40.7953 27.1289H40.1917ZM62.9143 21.7609C62.7131 22.9394 62.3232 23.9401 61.7447 24.7629C61.1698 25.5857 60.4674 26.2109 59.6374 26.6385C58.811 27.066 57.9199 27.2798 56.9641 27.2798C55.9617 27.2798 55.0975 27.0517 54.3717 26.5953C53.6495 26.139 53.1267 25.4797 52.8034 24.6173C52.48 23.7514 52.4189 22.7076 52.6201 21.486C52.8141 20.3039 53.2004 19.3014 53.7789 18.4786C54.3574 17.6522 55.0634 17.0234 55.897 16.5922C56.7306 16.1575 57.6271 15.9401 58.5864 15.9401C59.5817 15.9401 60.4404 16.17 61.1627 16.6299C61.8885 17.0899 62.4112 17.7546 62.731 18.6241C63.0544 19.49 63.1155 20.5356 62.9143 21.7609ZM60.5914 21.486C60.7171 20.7278 60.7117 20.0919 60.5752 19.5781C60.4422 19.0607 60.1979 18.669 59.8422 18.4031C59.4865 18.1372 59.0374 18.0043 58.4948 18.0043C57.9055 18.0043 57.3648 18.1516 56.8725 18.4462C56.3839 18.7409 55.9707 19.1685 55.6329 19.729C55.2988 20.2859 55.067 20.9632 54.9377 21.7609C54.8083 22.5226 54.8119 23.1586 54.9484 23.6688C55.0886 24.179 55.3383 24.5652 55.6976 24.8275C56.0605 25.0862 56.5114 25.2156 57.0504 25.2156C57.6361 25.2156 58.1714 25.0719 58.6565 24.7844C59.1451 24.4934 59.5566 24.0712 59.8907 23.5179C60.2249 22.9609 60.4584 22.2836 60.5914 21.486Z" fill="#222222"/>
<path d="M103.337 19.9553H101.009C101.016 19.6463 100.977 19.3733 100.89 19.1361C100.804 18.8954 100.675 18.6906 100.502 18.5217C100.333 18.3528 100.127 18.2253 99.8825 18.139C99.6382 18.0492 99.3633 18.0043 99.0579 18.0043C98.4687 18.0043 97.9279 18.1516 97.4356 18.4462C96.9434 18.7409 96.5284 19.1685 96.1906 19.729C95.8529 20.2859 95.6193 20.9596 95.49 21.7501C95.3642 22.5118 95.3714 23.1496 95.5116 23.6634C95.6517 24.1772 95.8996 24.5652 96.2553 24.8275C96.6146 25.0862 97.062 25.2156 97.5973 25.2156C97.9279 25.2156 98.2423 25.1743 98.5405 25.0916C98.8387 25.0054 99.11 24.8832 99.3543 24.7251C99.6023 24.5635 99.8179 24.3676 100.001 24.1377C100.188 23.9077 100.333 23.6472 100.438 23.3562H102.782C102.635 23.8628 102.405 24.3515 102.092 24.8222C101.783 25.2928 101.401 25.7132 100.944 26.0833C100.488 26.4498 99.9688 26.7409 99.3867 26.9564C98.8046 27.172 98.1668 27.2798 97.4734 27.2798C96.4709 27.2798 95.6104 27.0499 94.8917 26.5899C94.1767 26.13 93.6611 25.4671 93.3449 24.6012C93.0287 23.7352 92.9695 22.6915 93.1671 21.4698C93.3647 20.2877 93.7509 19.2852 94.3258 18.4624C94.9043 17.636 95.6068 17.009 96.4332 16.5814C97.2632 16.1539 98.1507 15.9401 99.0956 15.9401C99.7532 15.9401 100.348 16.0299 100.88 16.2096C101.411 16.3892 101.864 16.6515 102.238 16.9964C102.615 17.3378 102.899 17.7564 103.089 18.2522C103.28 18.7481 103.362 19.3158 103.337 19.9553ZM103.83 27.1289L105.663 16.091H113.101L112.777 18.0151H107.673L107.242 20.6452H111.963L111.64 22.5693H106.919L106.487 25.2048H111.613L111.29 27.1289H103.83ZM113.123 27.1289L114.956 16.091H119.311C120.144 16.091 120.829 16.2509 121.364 16.5707C121.903 16.8868 122.28 17.327 122.496 17.8911C122.715 18.4516 122.765 19.0984 122.647 19.8314C122.525 20.568 122.259 21.2165 121.849 21.777C121.443 22.3339 120.915 22.7687 120.265 23.0813C119.614 23.3939 118.863 23.5502 118.012 23.5502H115.236L115.543 21.68H117.942C118.394 21.68 118.781 21.6028 119.101 21.4483C119.424 21.2902 119.681 21.0728 119.871 20.7961C120.062 20.5159 120.186 20.1943 120.243 19.8314C120.304 19.4613 120.284 19.1397 120.184 18.8666C120.083 18.5936 119.898 18.3816 119.629 18.2307C119.363 18.0762 119.005 17.9989 118.556 17.9989H116.982L115.457 27.1289H113.123ZM122.95 27.1289L124.783 16.091H129.202C130.014 16.091 130.672 16.2114 131.175 16.4521C131.681 16.6928 132.035 17.027 132.236 17.4546C132.438 17.8785 132.491 18.3672 132.398 18.9205C132.323 19.3517 132.17 19.729 131.94 20.0523C131.714 20.3757 131.433 20.6416 131.099 20.85C130.765 21.0584 130.402 21.2057 130.01 21.292L129.989 21.3998C130.406 21.4177 130.781 21.5363 131.115 21.7555C131.449 21.971 131.699 22.2765 131.864 22.6717C132.03 23.0669 132.067 23.5358 131.978 24.0784C131.881 24.6641 131.649 25.1868 131.282 25.6468C130.916 26.1031 130.427 26.4642 129.816 26.7301C129.209 26.996 128.492 27.1289 127.666 27.1289H122.95ZM125.607 25.221H127.51C128.156 25.221 128.65 25.0952 128.992 24.8437C129.333 24.5922 129.538 24.2598 129.606 23.8466C129.653 23.5412 129.622 23.2717 129.515 23.0382C129.41 22.8046 129.233 22.6214 128.981 22.4885C128.733 22.3555 128.419 22.289 128.038 22.289H126.087L125.607 25.221ZM126.356 20.7099H128.086C128.403 20.7099 128.695 20.6542 128.965 20.5428C129.238 20.4278 129.463 20.2661 129.639 20.0577C129.818 19.8457 129.931 19.596 129.978 19.3086C130.043 18.9062 129.953 18.5846 129.709 18.3438C129.468 18.0995 129.091 17.9773 128.577 17.9773H126.809L126.356 20.7099ZM134.817 16.091H137.145L135.992 23.0328H136.089L142.006 16.091H144.049L142.217 27.1289H139.883L141.036 20.1817H140.955L135.005 27.1289H132.984L134.817 16.091ZM155.064 19.9553H152.736C152.743 19.6463 152.703 19.3733 152.617 19.1361C152.531 18.8954 152.402 18.6906 152.229 18.5217C152.06 18.3528 151.854 18.2253 151.609 18.139C151.365 18.0492 151.09 18.0043 150.785 18.0043C150.195 18.0043 149.655 18.1516 149.162 18.4462C148.67 18.7409 148.255 19.1685 147.917 19.729C147.58 20.2859 147.346 20.9596 147.217 21.7501C147.091 22.5118 147.098 23.1496 147.238 23.6634C147.378 24.1772 147.626 24.5652 147.982 24.8275C148.341 25.0862 148.789 25.2156 149.324 25.2156C149.655 25.2156 149.969 25.1743 150.267 25.0916C150.566 25.0054 150.837 24.8832 151.081 24.7251C151.329 24.5635 151.545 24.3676 151.728 24.1377C151.915 23.9077 152.06 23.6472 152.164 23.3562H154.509C154.362 23.8628 154.132 24.3515 153.819 24.8222C153.51 25.2928 153.127 25.7132 152.671 26.0833C152.215 26.4498 151.696 26.7409 151.113 26.9564C150.531 27.172 149.894 27.2798 149.2 27.2798C148.198 27.2798 147.337 27.0499 146.619 26.5899C145.904 26.13 145.388 25.4671 145.072 24.6012C144.756 23.7352 144.696 22.6915 144.894 21.4698C145.091 20.2877 145.478 19.2852 146.053 18.4624C146.631 17.636 147.334 17.009 148.16 16.5814C148.99 16.1539 149.877 15.9401 150.822 15.9401C151.48 15.9401 152.075 16.0299 152.606 16.2096C153.138 16.3892 153.591 16.6515 153.965 16.9964C154.342 17.3378 154.626 17.7564 154.816 18.2522C155.007 18.7481 155.089 19.3158 155.064 19.9553Z" fill="#222222"/>
<path fill-rule="evenodd" clip-rule="evenodd" d="M82.9069 6.44571e-05C82.9069 6.44571e-05 80.929 3.55825 82.6426 7.19872C84.3575 10.8393 85.8608 13.7079 85.517 16.7688C85.517 16.7688 86.3874 11.8043 90.792 10.5072C90.792 10.5072 89.1569 13.7338 90.0532 18.2856C90.9494 22.8363 88.9187 31.3318 80.5837 33.5387C80.5837 33.5387 87.9692 29.4291 82.6674 22.7537C82.6674 22.7537 82.5358 26.0367 79.8056 27.0149C79.8056 27.0149 84.1044 19.361 77.7746 12.2449C77.7746 12.2449 79.2252 17.1824 74.3719 21.4028C70.6096 24.6745 71.3375 31.3682 77.9186 33.8775C84.4997 36.3869 86.0492 36.249 88.4206 36.5878C90.792 36.9265 93.5022 36.9265 99.2614 37.2653C99.2614 37.2653 86.388 37.2653 77.9186 37.2653C74.9036 36.8319 72.3817 35.1247 71.1806 34.2841C66.2564 30.8377 63.1813 23.2677 68.5426 11.5561C68.5426 11.5561 68.8596 14.8933 71.1806 16.1902C71.1806 16.1902 70.8375 1.87544 82.9055 0L82.9069 6.44571e-05Z" fill="#F46700"/>
<path fill-rule="evenodd" clip-rule="evenodd" d="M82.9069 6.44571e-05C82.9069 6.44571e-05 80.929 3.55825 82.6426 7.19872C84.3575 10.8393 85.8608 13.7079 85.517 16.7688C85.517 16.7688 86.3874 11.8043 90.792 10.5072C90.792 10.5072 89.1569 13.7338 90.0532 18.2856C90.9494 22.8363 88.9187 31.3318 80.5837 33.5387C80.5837 33.5387 87.9692 29.4291 82.6674 22.7537C82.6674 22.7537 82.5358 26.0367 79.8056 27.0149C79.8056 27.0149 84.1044 19.361 77.7746 12.2449C77.7746 12.2449 79.2252 17.1824 74.3719 21.4028C70.6096 24.6745 71.3375 31.3682 77.9186 33.8775C84.4997 36.3869 86.0492 36.249 88.4206 36.5878C90.792 36.9265 93.5022 36.9265 99.2614 37.2653C99.2614 37.2653 86.388 37.2653 77.9186 37.2653C74.9036 36.8319 72.3817 35.1247 71.1806 34.2841C66.2564 30.8377 63.1813 23.2677 68.5426 11.5561C68.5426 11.5561 68.8596 14.8933 71.1806 16.1902C71.1806 16.1902 70.8375 1.87544 82.9055 0L82.9069 6.44571e-05Z" fill="#FF8E01"/>
</svg>
